<svg xmlns="http://www.w3.org/2000/svg" style="display: none;">
  <symbol id="map-pin" viewBox="0 0 32 32">
    <title>map-pin</title>
    <path fill="#6B7280" fill-rule="evenodd" d="M7.515 4.64C9.765 2.31 12.818 1 16 1c3.183 0 6.235 1.31 8.485 3.64C26.735 6.97 28 10.13 28 13.426c0 3.296-1.264 6.457-3.515 8.787L16 31l-8.485-8.787a12.464 12.464 0 0 1-2.601-4.031A12.81 12.81 0 0 1 4 13.426c0-1.632.31-3.247.914-4.755a12.464 12.464 0 0 1 2.6-4.031ZM16 16.977a3.37 3.37 0 0 0 2.424-1.04 3.615 3.615 0 0 0 1.005-2.51c0-.942-.362-1.845-1.005-2.511A3.37 3.37 0 0 0 16 9.876a3.37 3.37 0 0 0-2.424 1.04 3.615 3.615 0 0 0-1.004 2.51c0 .942.361 1.845 1.004 2.51A3.37 3.37 0 0 0 16 16.977Z" clip-rule="evenodd" />
  </symbol>
  <symbol id="x-mark" viewBox="0 0 32 32">
    <title>x-mark</title>
    <path fill="#6B7280" fill-rule="evenodd" d="M1.731 1.763a2.496 2.496 0 0 1 3.532 0l10.721 10.733L26.706 1.763a2.498 2.498 0 1 1 3.532 3.535L19.516 16.031l10.722 10.732A2.501 2.501 0 0 1 28.463 31a2.496 2.496 0 0 1-1.757-.702L15.984 19.566 5.263 30.298a2.496 2.496 0 0 1-4.233-1.776 2.501 2.501 0 0 1 .701-1.759l10.722-10.732L1.73 5.298a2.501 2.501 0 0 1 0-3.535Z" clip-rule="evenodd" />
  </symbol>
  <symbol id="phone" viewBox="0 0 32 32">
    <title>phone</title>
    <path fill="var(--primary)" stroke="var(--primary)" stroke-width=".8" d="m8.366 2.633 1.388 8.316a1.475 1.475 0 0 1-.797 1.564l-2.903 1.45-.33.164.138.343A21.094 21.094 0 0 0 17.53 26.138l.343.138.165-.33 1.451-2.903a1.475 1.475 0 0 1 1.562-.796l8.316 1.387a1.475 1.475 0 0 1 1.233 1.454v4.037a1.475 1.475 0 0 1-1.475 1.475h-3.75C12.133 30.6 1.4 19.867 1.4 6.625v-3.75A1.475 1.475 0 0 1 2.875 1.4h4.037a1.475 1.475 0 0 1 1.454 1.233Z" />
  </symbol>
  <symbol id="bars-3" viewBox="0 0 32 32">
    <title>bars-3</title>
    <path fill="#000" stroke="#000" stroke-width=".727" d="M3.364 6.417c0-.416.16-.812.441-1.103.281-.29.66-.45 1.052-.45h22.286c.392 0 .77.16 1.052.45.281.29.441.687.441 1.103 0 .415-.16.811-.441 1.102-.281.29-.66.45-1.052.45H4.857c-.392 0-.77-.16-1.052-.45a1.585 1.585 0 0 1-.441-1.102Zm0 9.583c0-.415.16-.812.441-1.102.281-.29.66-.451 1.052-.451h22.286c.392 0 .77.16 1.052.45.281.291.441.688.441 1.103 0 .416-.16.812-.441 1.102-.281.29-.66.451-1.052.451H4.857c-.392 0-.77-.16-1.052-.45A1.585 1.585 0 0 1 3.364 16Zm0 9.583c0-.415.16-.811.441-1.102.281-.29.66-.45 1.052-.45h22.286c.392 0 .77.16 1.052.45.281.29.441.687.441 1.102 0 .416-.16.812-.441 1.103-.281.29-.66.45-1.052.45H4.857c-.392 0-.77-.16-1.052-.45a1.585 1.585 0 0 1-.441-1.103Z" />
  </symbol>
  <symbol id="chevron-right" viewBox="0 0 32 26">
    <title>chevron-right</title>
    <path fill="var(--gray-900)" fill-rule="evenodd" d="M9.232 23.99a2.311 2.311 0 0 1-.732-1.677c0-.628.263-1.232.732-1.676l8.233-7.81L9.232 5.02a2.308 2.308 0 0 1-.702-1.67 2.312 2.312 0 0 1 .732-1.656A2.57 2.57 0 0 1 11.01 1a2.574 2.574 0 0 1 1.758.666l10.001 9.485c.469.445.732 1.048.732 1.677s-.263 1.232-.732 1.676l-10 9.486a2.57 2.57 0 0 1-1.768.694 2.57 2.57 0 0 1-1.768-.694Z" clip-rule="evenodd" />
  </symbol>
  <symbol id="chevron-left" viewBox="0 0 32 26">
    <title>chevron-left</title>
    <path fill="var(--gray-900)" fill-rule="evenodd" d="M22.768 1.694c.469.445.732 1.048.732 1.677s-.263 1.232-.732 1.676l-8.233 7.81 8.233 7.808c.455.448.707 1.047.702 1.668a2.312 2.312 0 0 1-.732 1.657 2.57 2.57 0 0 1-1.747.694 2.574 2.574 0 0 1-1.758-.666L9.232 14.534a2.311 2.311 0 0 1-.732-1.677c0-.628.263-1.232.732-1.676l10-9.486A2.571 2.571 0 0 1 21 1c.663 0 1.3.25 1.768.694Z" clip-rule="evenodd" />
  </symbol>
  <symbol id="home" viewBox="0 0 32 32">
    <title>home</title>
    <path fill="#374151" d="M17.328 1.549a1.88 1.88 0 0 0-2.656 0L1.527 14.674a1.873 1.873 0 0 0 1.335 3.178 1.88 1.88 0 0 0 1.32-.527l.55-.549v12.349A1.873 1.873 0 0 0 6.612 31h3.755a1.88 1.88 0 0 0 1.878-1.875v-3.75a1.873 1.873 0 0 1 1.878-1.875h3.756a1.879 1.879 0 0 1 1.878 1.875v3.75A1.873 1.873 0 0 0 21.634 31h3.755a1.88 1.88 0 0 0 1.878-1.875V16.776l.55.55A1.88 1.88 0 0 0 31 15.992a1.873 1.873 0 0 0-.527-1.319L17.328 1.55Z" />
  </symbol>
  <symbol id="plus" viewBox="0 0 32 32">
    <title>plus</title>
    <path stroke="#7D858D" stroke-linecap="round" stroke-linejoin="round" stroke-width="2" d="M16 6v10m0 0v10m0-10h10m-10 0H6" />
  </symbol>
  <symbol id="arrow-small-white" viewBox="0 0 32 32">
    <title>arrow-small-white</title>
    <path fill="#fff" fill-rule="evenodd" d="M16.41 6.61a1.4 1.4 0 0 1 1.98 0l8.4 8.4a1.4 1.4 0 0 1 0 1.98l-8.4 8.4a1.4 1.4 0 0 1-1.98-1.98l6.01-6.01H6.2a1.4 1.4 0 0 1 0-2.8h16.22l-6.01-6.01a1.4 1.4 0 0 1 0-1.98Z" clip-rule="evenodd" />
  </symbol>
  <symbol id="mail" viewBox="5 2 24 24">
    <title>mail</title>
    <path fill="var(--primary)" d="M4.804 10.238 16 15.835l11.196-5.597A2.8 2.8 0 0 0 24.4 7.6H7.6a2.8 2.8 0 0 0-2.796 2.638Z" />
    <path fill="var(--primary)" d="m27.2 13.365-11.2 5.6-11.2-5.6V21.6a2.8 2.8 0 0 0 2.8 2.8h16.8a2.8 2.8 0 0 0 2.8-2.8v-8.235Z" />
  </symbol>
</svg>