<svg xmlns="http://www.w3.org/2000/svg" width="2874" height="1144"><path fill="#080809" d="m1399.32 20.855 3.368-.02 3.652-.003 3.736-.01q3.918-.007 7.836-.007 4.023 0 8.046-.02c3.856-.02 7.713-.024 11.57-.025l3.645-.022 3.378.01 2.976-.005C1450 21 1450 21 1453 23c2.448.324 4.91.54 7.375.687l3.96.262c3.553.185 3.553.185 6.517-.554L1473 23l2 2c4.1 1.454 8.257.983 12.54.84C1490 26 1490 26 1492 28c2.597.388 2.597.388 5.5.5 5.278.278 5.278.278 7.5 2.5h8l2 2c1.907.384 1.907.384 4 .5 3.778.278 3.778.278 6 2.5q3.495.526 7 1a104 104 0 0 1 5 2 52 52 0 0 0 6.5 1.375c2.5.625 2.5.625 4.191 2.004 3.024 2.123 6.255 3.102 9.746 4.183 4.25 1.35 8.431 2.758 12.563 4.438l2 .437c2.663.75 4.657 2.092 7 3.563a335 335 0 0 0 3.5 2.062l1.656.973c1.879 1.027 1.879 1.027 4.106 1.844 3.483 1.426 6.749 3.2 10.05 4.996 3.99 2.155 7.969 4.298 12.063 6.25 3.79 1.849 7.194 4.193 10.645 6.605 2.052 1.43 2.052 1.43 4.98 2.27l3 3 2.625 1.437C1634 86 1634 86 1634.643 87.802c.383 2.357.463 4.543.44 6.931l-.022 2.872-.04 3.13-.028 3.312c-.033 3.615-.074 7.23-.114 10.844l-.072 7.516q-.085 8.882-.18 17.764c-.08 7.404-.15 14.808-.223 22.212q-.194 19.809-.404 39.617 4.095-3.123 8.187-6.25l2.33-1.777 2.276-1.739 2.208-1.685c1.667-1.292 3.3-2.626 4.925-3.97C1656 185 1656 185 1658 185v-79l2-1c2.062.687 2.062.687 4 2l1 4c1.323.686 2.658 1.35 4 2 1.612 1.31 1.612 1.31 3.172 2.793l1.752 1.65 1.826 1.744q1.88 1.773 3.762 3.543l1.821 1.717c2.579 2.403 5.236 4.708 7.92 6.99 5.364 4.8 9.899 10.204 14.462 15.743l1.543 1.836 1.38 1.665c1.44 1.586 1.44 1.586 4.362 2.319 2.115-.645 2.115-.645 4.375-1.773l2.692-1.238 2.933-1.364c26.29-11.766 54.26-19.862 83-22.625l2.973-.332c32.597-3.155 68.773-.534 95.543 20.273L1905 148l2.61 2.152c16.993 14.651 27.24 34.76 30.109 56.996 4.384 60.035-25.428 118.806-63.836 163.441A814 814 0 0 1 1870 375l-2.297 2.598a679 679 0 0 1-4.414 4.89 523 523 0 0 0-4.766 5.305c-11.38 12.707-23.864 24-37.523 34.207l-1.973 1.475c-12.085 9-12.085 9-16.151 11.267-3.099 2.008-3.099 2.008-3.893 5.276l-.374 3.513-.46 3.899q-.201 2.034-.399 4.07-.219 1.989-.445 3.977-.443 3.906-.87 7.814c-.924 7.873-2.232 15.576-4.373 23.209a605 605 0 0 0-4.449 17.11A80 80 0 0 1 1786 509c18.1-9.802 35.397-20.84 52-33q2.561-1.824 5.13-3.639c6.989-4.95 13.87-10.038 20.694-15.213a533 533 0 0 1 8.758-6.484l4.543-3.352c1.048-.746 1.048-.746 2.116-1.509 5.229-3.896 8.468-8.207 11.759-13.803l1.474-2.504a616 616 0 0 0 4.588-8.121l3.446-6.14c.58-1.038 1.16-2.075 1.759-3.143 2.708-4.831 5.44-9.648 8.17-14.467a2280 2280 0 0 0 9.965-17.75c7.631-13.746 15.548-27.284 23.698-40.728 1.922-3.183 3.826-6.376 5.724-9.573 23.111-38.877 48.52-76.696 79.024-110.203a358 358 0 0 0 4.148-4.648c4.835-5.494 9.903-10.727 15.066-15.91l2.003-2.017c4.482-4.468 9.131-8.678 13.935-12.796l3.062-2.668c54.832-47.03 54.832-47.03 82.852-46.547 4.835.498 8.706 2.089 12.461 5.152 4.71 8.878 3.882 17.602 1.078 26.926-2.37 7.1-5.807 13.622-9.453 20.137l-1.166 2.098c-9.279 16.568-20.288 31.855-31.834 46.902l-1.406 1.836c-6.435 8.372-13.165 16.447-20.087 24.418a616 616 0 0 0-4.44 5.21c-6.776 8.012-13.818 15.726-21.025 23.35a690 690 0 0 0-5.934 6.459c-7.472 8.177-15.257 16.029-23.1 23.85a3719 3719 0 0 0-6.805 6.81l-4.406 4.403-2.015 2.02c-5.289 5.264-10.697 10.359-16.7 14.805-9.558 7.4-12.166 16.882-15.77 28.026q-.966 2.859-1.944 5.713a1361 1361 0 0 0-4.586 13.729 1203 1203 0 0 1-5.095 15.058l-.91 2.645C1963.999 479.375 1920.586 528.452 1861 562l-2.185 1.234c-19.48 10.891-39.996 19.036-61.128 26.078l-2.203.736c-12.06 4.007-24.246 7.53-36.484 10.952l5.186 1.414 3.472.947 27.667 7.545 11.452 3.121 2.327.635q15.705 4.281 31.4 8.592c105.695 33.947 105.695 33.947 210.262 15.14 2.263-1.36 2.263-1.36 4.336-3.023 2.562-1.85 4.783-2.1 7.898-2.371l2 1c-.152 3.254-.152 3.254-1 7-2.379 2.152-2.379 2.152-5.563 3.937l-1.764 1A281 281 0 0 1 2051 649l-1.795.988c-84.15 46.269-184.464 35.674-294.32 5.851-4.62-1.344-9.215-2.758-13.807-4.19l-2.562-.798a869 869 0 0 1-11.805-3.776l-4.133-1.321-3.58-1.178c-2.903-.805-2.903-.805-5.268.145-2.684 1.985-4.356 4.514-6.293 7.216-3.372 4.68-6.63 8.412-11 12.125a254 254 0 0 0-9.812 9.063l-2.523 2.445c-2.22 2.298-2.22 2.298-3.172 5.125-1.309 3.244-3.513 3.647-6.57 5.008-5.538 3.044-10.082 7.938-14.446 12.457-2.16 2.077-4.518 3.357-7.137 4.785-2.215 1.315-4.104 2.944-6.043 4.633-2.997 2.457-6.225 4.59-9.414 6.79a90 90 0 0 0-5.008 3.82c-3.609 2.828-7.54 4.973-11.687 6.937-1.816.777-1.816.777-2.625 2.875a287 287 0 0 1-4.852 2.023c-2.448 1.114-4.67 2.443-6.96 3.852-5.728 3.51-11.61 6.794-17.918 9.14-2.428.765-2.428.765-3.27 2.985h-5v2l-1.941.516c-4.178 1.17-8.072 2.305-11.809 4.546-3.061 1.826-5.892 2.819-9.25 3.938l-1 2-2.438-.25c-3.968.278-6.323 1.405-9.855 3.102-4.389 1.861-8.97 2.994-13.57 4.218-2.611.774-4.728 1.712-7.137 2.93-1.238-.03-1.238-.03-2.5-.063-2.599-.178-2.599-.178-4.563 1.625L1514 772l-1.938-.5-2.062-.5-2.25 1.437c-3.805 2.162-6.398 1.703-10.75 1.563-3.075.776-3.075.776-5 3l-1.68-1.934-2.195-2.504-2.18-2.496c-1.777-2.126-1.777-2.126-3.945-3.066v-2l-3-1a288 288 0 0 1-3.688-4.531c-1.333-1.646-1.333-1.646-3.687-2.844-2.578-1.596-3.9-2.971-5.832-5.264-3.533-4.106-7.257-7.947-11.105-11.755l-2.102-2.092a4327 4327 0 0 0-4.475-4.448q-3.54-3.514-7.071-7.035a18947 18947 0 0 0-20.09-19.985q-6.164-6.126-12.318-12.263-2.346-2.337-4.697-4.667-3.269-3.245-6.529-6.498l-1.978-1.952C1391 676.228 1391 676.228 1391 674h-2c-1.332-1.355-1.332-1.355-2.813-3.188-3.602-4.333-7.425-8.196-11.75-11.812-2.883-2.43-5.088-5.045-7.437-8a318 318 0 0 0-6-5 176 176 0 0 1-4-4l1-3h149l-27-4c-34.652-8.25-34.652-8.25-44-21-2.642-4.488-3.656-8.842-2.688-13.996 3.593-10.473 14.206-15.93 23.5-20.567 12.886-5.937 26.775-9.2 40.688-11.687l2.543-.458c16.495-2.732 33.027-3.608 49.724-3.498 2.864.019 5.728.02 8.592.02l2.85.01q2.817.008 5.634-.002c4.497.014 8.805.208 13.251.904 9.475 1.412 9.475 1.412 18.011-2.27 4.083-3.448 7.573-7.377 11.082-11.394a771 771 0 0 1 3.788-4.06A436 436 0 0 0 1622 537l-1.598-.683c-17.331-7.465-32.48-15.487-46.402-28.317l-1.534-1.385C1559.05 494.4 1549.31 479.53 1542 463l-.85-1.914c-15.976-36.513-16.412-77.976-6.15-116.086l.69-2.569c9.856-35.33 30.685-69.42 55.111-96.513 2.727-2.972 2.727-2.972 3.199-6.918-1.374-1.774-1.374-1.774-3.254-3.512l-2.092-2.049-2.217-2.127q-2.13-2.064-4.253-4.136l-1.92-1.847c-1.862-1.916-3.592-3.862-5.327-5.89-4.288-4.936-8.919-9.519-13.567-14.113q-2.38-2.356-4.752-4.717a8520 8520 0 0 0-13.495-13.39 4121 4121 0 0 1-8.29-8.236q-1.576-1.566-3.158-3.127a1204 1204 0 0 1-4.38-4.35l-2.52-2.497C1523 167 1523 167 1523 165l-1.938-.813C1519 163 1519 163 1518 160l-1.668-.805c-3.497-1.792-5.914-4.53-8.645-7.32l-1.646-1.648a181 181 0 0 1-8.393-9.075c-4.051-4.674-8.352-9.077-12.71-13.465l-2.354-2.416c-4.436-4.511-4.436-4.511-9.768-7.814-3.53-1.826-4.913-4.045-7.164-7.25-2.957-3.95-6.556-7.277-10.09-10.707q-2.189-2.138-4.37-4.281l-1.932-1.877c-1.868-1.936-3.616-3.905-5.366-5.946-4.102-4.719-8.5-9.116-12.94-13.516q-2.236-2.22-4.468-4.445-4.74-4.721-9.486-9.435a9533 9533 0 0 1-11.008-10.952q-2.18-2.17-4.365-4.333c-4.58-4.564-9.033-9.169-13.227-14.092-1.704-1.976-3.518-3.817-5.4-5.623l1.898-.621 2.477-.817 2.46-.808c3.543-1.234 5.64-1.884 9.485-1.9M1722 169c3.045 4.607 6.116 9.184 9.312 13.687 3.399 4.81 6.562 9.754 9.668 14.755 1.971 3.33 1.971 3.33 5.02 5.558a365 365 0 0 1 2.02 4.82c1.165 2.592 2.5 5.03 3.917 7.492l1.465 2.551c1.773 2.371 2.84 3.135 5.598 4.137 1.994-.368 1.994-.368 3.95-1.379l2.292-1.036 2.445-1.148c23.857-10.55 52.687-17.436 78.313-9.437 11.518 4.482 20.267 10.959 25.781 22.172 6.696 15.538 5.55 32.04.219 47.828-3.692 9.128-3.692 9.128-8 12h-3c-.354-5.03.86-8.675 2.875-13.188 5.636-13.356 6.92-25.95 2.125-39.812-4.966-10.86-12.966-17.644-24-22-22.312-5.988-46.5 3.93-65.547 14.753-3.921 2.274-7.707 4.696-11.453 7.247 1.948 7.792 5.246 15.03 8.484 22.36 3.688 8.402 6.8 16.877 9.516 25.64l.685 2.205a980 980 0 0 1 2.065 6.795l.639 2.103c.964 3.274 1.667 6.309 2.127 9.71.276 3.334.276 3.334 2.484 6.187.379 2.191.379 2.191.562 4.562.253 3.345.253 3.345 1.438 6.438.822 4.825 1.167 9.183-1.55 13.413-2.153 2.3-4.39 4.39-6.763 6.462q-2.343 2.145-4.675 4.305l-2.11 1.866c-2.084 2.141-3.398 4.384-4.902 6.954q-2.494 2.007-5 4a181 181 0 0 0-3.125 3.687c-2.657 3.11-5.398 5.618-8.625 8.125-6.622 5.245-12.442 11.246-18.349 17.273l-2.35 2.392-2.073 2.127c-2.037 1.97-4.106 3.823-6.249 5.671-4.339 3.768-8.4 7.77-12.448 11.846l-2.252 2.257q-3.517 3.526-7.029 7.06l-4.805 4.818q-5.85 5.868-11.695 11.744c3.721 3.859 7.26 6.533 12.062 8.875l1.854.969c2.513 1.25 4.47 2.196 7.31 2.011 4.91-2.368 8.616-6.576 12.088-10.68 3.242-3.74 6.686-7.082 10.35-10.402 7.82-7.214 15.35-14.7 22.86-22.234l1.815-1.82q6.523-6.543 13.036-13.094 6.59-6.627 13.188-13.244 2.62-2.631 5.235-5.267l3.18-3.19 2.801-2.817C1797 365 1797 365 1799 364l.06 1.988c.095 2.963.205 5.925.315 8.887.03 1.033.062 2.065.094 3.129l.117 2.988.095 2.761c.118 2.446.118 2.446 2.319 4.247.243 2.139.243 2.139.23 4.754l-.005 2.838-.038 2.97-.001 2.983c-.046 7.315-.046 7.315-1.186 8.455a200 200 0 0 0-.563 7.562l-.13 2.155q-.159 2.64-.307 5.283c3.44-1.253 6.153-2.659 9.04-4.906l2.242-1.74 2.343-1.854 2.425-1.903a248 248 0 0 0 15.641-13.437 186 186 0 0 1 6.371-5.66c7.571-6.593 14.449-13.853 20.938-21.5l2.383-2.719C1897.52 329.78 1932.94 271.151 1929 214c-2.15-22.337-11.34-41.724-28-57-19.496-15.764-41.71-22.435-66.5-22.313l-3.694.018c-37.797.5-77.214 13.649-108.806 34.295m384-1-1.598 1.586c-40.089 40.31-65.825 96.331-85.131 148.955q-1.35 3.671-2.737 7.329l-1.417 3.806-1.301 3.454c-1.117 2.905-1.117 2.905.184 5.87l1.988-2.004q3.648-3.673 7.302-7.34l3.16-3.181a2541 2541 0 0 1 4.542-4.565l2.761-2.777C2036 317 2036 317 2038 316v-2l3-1c1.578-1.557 1.578-1.557 3.125-3.5 4.745-5.592 9.978-10.651 15.203-15.79 4.206-4.162 8.238-8.395 12.095-12.883 2.253-2.61 4.603-5.117 6.952-7.64 4.272-4.623 8.312-9.385 12.258-14.292 2.173-2.658 4.401-5.25 6.659-7.837 6.465-7.42 12.429-15.133 18.247-23.069a944 944 0 0 1 4.309-5.81c26.924-33.915 26.924-33.915 36.152-74.179-1.96-3.294-3.35-3.778-6.938-5-17.417-1.492-31.842 13.832-43.062 25m-455.5 58.312-1.781 1.745a172 172 0 0 0-3.682 3.788 125 125 0 0 1-4.494 4.503c-5.689 5.947-7.476 10.766-7.403 18.85.07 2.166.182 4.326.297 6.49a785 785 0 0 1 .124 4.474c.098 3.616.252 7.226.439 10.838-3.766-3.18-7.484-6.351-10.938-9.875l-1.777-1.805L1620 264c-4.554 4.16-7.748 8.82-11.063 14l-1.708 2.656c-25.002 39.259-44.801 84.1-46.229 131.344l-.121 3.441c-.57 31.573 6.81 62.963 29.02 86.395L1592 504l1.664 1.852c7.484 8.073 17.136 13.758 26.836 18.773l2.031 1.076c2.86 1.422 5.027 2.312 8.246 2.217 2.55-1.053 3.613-2.055 5.285-4.23l1.532-1.918L1639 520a181 181 0 0 1 4-4l2.273-2.3c2.698-2.67 5.469-5.224 8.29-7.763 3.708-3.33 3.708-3.33 7.277-6.808 1.886-1.859 3.816-3.575 5.822-5.3 4.121-3.595 8.031-7.36 11.9-11.224l2.051-2.04q2.12-2.112 4.235-4.228c2.17-2.167 4.346-4.325 6.523-6.483l4.129-4.124 1.979-1.957 1.802-1.811 1.596-1.592c1.334-1.333 1.334-1.333 1.123-3.37l-2.852-1.172-3.773-1.578-1.871-.766c-4.193-1.765-7.789-3.855-11.504-6.484-3.465 1.484-5.668 3.447-8.293 6.133l-2.408 2.441-2.487 2.551q-2.456 2.506-4.917 5.008l-2.193 2.246C1660 467 1660 467 1659 467l-.004-1.672a1862 1862 0 0 0-.149-17.377 790 790 0 0 1-.043-6.468c.133-16.432.133-16.432-5.804-31.483-7.024-18.845-7.456-39.478-3.313-59l.413-1.97c.845-3.616 1.865-6.948 3.331-10.371 5.374-12.7 5.35-24.667 5.155-38.288q-.017-3.495-.026-6.99c-.022-6.074-.081-12.148-.148-18.222-.062-6.222-.089-12.443-.119-18.665A7061 7061 0 0 0 1658 220c-2.519 0-5.681 4.496-7.5 6.312M1872 462l-1.55 1.17c-19.935 15.039-39.871 29.912-61.263 42.83l-2.542 1.552c-4.156 2.502-8.289 4.803-12.711 6.8-9.31 4.116-9.31 4.116-15.247 11.992-1.36 3.765-2.248 7.58-3.091 11.487-.833 3.032-2.201 5.66-3.673 8.427-1.064 2.007-1.884 4.05-2.673 6.18-4.423 11.275-9.883 22.125-15.707 32.734-1.945 3.565-3.756 7.182-5.543 10.828 6.2-1.837 11.65-4.17 17.187-7.5l2.214-1.32c11.986-7.312 22.512-16.457 32.599-26.18l1.834-1.768c7.934-7.693 15.353-15.515 22.166-24.232a932 932 0 0 1 2.754-3.344c7.41-9.006 14.069-18.414 20.544-28.109q2.635-3.937 5.284-7.863c5.537-8.234 11.022-16.504 16.355-24.872l1.308-2.016c.982-1.56 1.879-3.174 2.755-4.796zm-426.063 133.437c-2.323 3.073-2.937 4.71-2.937 8.563 1.487 6.29 4.746 8.94 10.105 12.375 19.236 10.8 43.32 12.765 64.895 14.625l3.351.292c12.352.923 24.717.894 37.098.893 3.752.002 7.503.02 11.254.04 23.697.057 47.097-1.449 70.547-4.85q2.482-.349 4.965-.695 5.895-.827 11.785-1.68c-19.934-13.29-45.448-10.983-68.192-10.55-4.841.084-9.683.12-14.525.16-9.428.084-18.856.22-28.283.39 0-2 0-2 1.469-3.696l2.031-2 2.187-2.167 2.313-2.262 2.312-2.285q2.838-2.802 5.688-5.59c-.815-2.213-.815-2.213-3.123-2.73l-2.81-.672-3.131-.755-3.374-.78-3.426-.806c-9.313-2.15-18.655-4.022-28.136-5.257l-2.117-.286c-7.586-.896-15.193-.935-22.822-.954-2.293-.01-4.585-.041-6.877-.073-14.468-.104-28.538 1.432-40.247 10.75m214.817 35.77-4.936.775-2.6.412A739 739 0 0 1 1598 639v1h105c-4.682-3.121-9.979-4.418-15.313-6.125l-3.42-1.129-3.318-1.066-3.02-.977c-5.845-1.403-11.325-.451-17.175.504"/><path fill="#040405" d="M1110.49 185.262a103 103 0 0 1 4.28.016l2.386-.015c2.642-.01 5.282.023 7.923.056q2.838.002 5.677-.003c5.14-.002 10.28.034 15.42.076 5.37.037 10.74.04 16.112.048 10.171.018 20.342.068 30.514.128 11.579.067 23.158.1 34.737.13 23.82.063 47.64.168 71.461.302l1 2-2 1.937c-2.394 2.38-4.602 4.887-6.812 7.438-3.2 3.634-6.565 6.818-10.25 9.95-4.245 3.67-8.113 7.665-11.72 11.96-6.024 6.905-12.642 13.261-19.13 19.725l-4.55 4.546a16295 16295 0 0 1-9.77 9.75 25403 25403 0 0 0-15.457 15.434 117873 117873 0 0 1-35.6 35.544 97868 97868 0 0 0-32.637 32.589q-7.674 7.666-15.356 15.327-4.783 4.773-9.562 9.55l-4.423 4.41c-9.44 9.361-9.44 9.361-18.342 19.23-2.247 2.602-4.692 4.988-7.159 7.38l-3.284 3.216-1.72 1.677c-3.039 2.97-6.062 5.958-9.087 8.942-3.834 3.78-7.673 7.554-11.53 11.31a1427 1427 0 0 0-9.36 9.21 461 461 0 0 1-3.57 3.485 425 425 0 0 0-4.949 4.879l-2.85 2.793c-2.211 2.593-2.211 2.593-1.686 5.813L1050 447c.093 2.782.14 5.532.125 8.312l.012 2.147a99 99 0 0 1-.645 11.315l-.278 2.411L1049 473q12.3-12.265 24.59-24.539 5.707-5.7 11.418-11.394 5.508-5.49 11.01-10.99 2.103-2.1 4.209-4.198 2.941-2.932 5.876-5.869l1.775-1.763c2.92-2.85 2.92-2.85 5.122-6.247h2v-2h2v-2h2v-2h2v-2h2v-2h2v-2h2v-2h2v-2h2v-2h2v-2h2v-2h2v-2h2v-2h2v-2h2v-2h2v-2a127 127 0 0 1 5-5q1.503-1.48 2.999-2.967l1.607-1.588q3.575-3.537 7.142-7.083 1.88-1.864 3.765-3.724 2.737-2.704 5.464-5.42l1.695-1.663c2.388-2.388 4.272-4.462 6.017-7.381C1180 339 1180 339 1183 338c1.964 1.964 1.12 4.983 1.124 7.597l-.01 2.88v3.015c0 3.306-.009 6.612-.016 9.918l-.005 6.856a15102 15102 0 0 1-.024 18.086q-.014 9.22-.02 18.439-.016 18.105-.049 36.209l2.147-1.046q4.883-2.373 9.771-4.735l3.377-1.646c9.038-4.364 18.002-8.005 27.705-10.573l2.335-.624c9.907-2.544 19.559-3.736 29.79-3.814l2.835-.03c8.884.112 17.284 1.865 24.282 7.616 6.043 6.366 7.93 14.262 7.758 22.852q-.479 3.503-1 7l1.474-2.493a5176 5176 0 0 1 35.568-59.215 13232 13232 0 0 0 8.386-13.774c6.166-10.143 12.233-20.343 18.28-30.558a2811 2811 0 0 1 18.87-31.366c5.461-8.969 10.826-17.993 16.172-27.032 5.645-9.542 11.332-19.047 17.241-28.43 3.401-5.433 6.65-10.94 9.853-16.491q1.936-3.337 3.875-6.673 1.274-2.205 2.529-4.42a622 622 0 0 1 3.565-6.189l1.056-1.903c1.594-2.701 2.613-4.254 5.583-5.41 2.677-.048 4.89.263 7.497.864 6.636 1.314 13.111 1.513 19.864 1.527l3.885.012c14.35-.103 28.269-2.621 42.302-5.449 0 4.146-2.034 6.805-4.125 10.25l-1.35 2.256c-1.5 2.503-3.012 4.999-4.525 7.494l-1.59 2.63c-7.347 12.15-14.79 24.242-22.239 36.33-7.059 11.463-14.04 22.973-21.017 34.486-5.715 9.431-11.442 18.856-17.167 28.282l-3.834 6.314a5752 5752 0 0 1-19.965 32.645c-7.736 12.552-15.393 25.15-23.034 37.759-5.715 9.431-11.442 18.856-17.167 28.282l-3.834 6.314q-2.606 4.291-5.215 8.583l-1.707 2.807a2215 2215 0 0 1-9.06 14.755 1778 1778 0 0 0-24.136 40.2l-1.047 1.793-1.032 1.77a1522 1522 0 0 1-9.518 16.05l-1.334 2.222a786 786 0 0 1-5.953 9.75c-4.814 7.75-9.364 15.604-13.776 23.59l-1.906 3.42c-4.027 7.265-7.745 14.57-11.469 22.018l19 19c14.646-5.859 24.872-14.168 36-25l1.591-1.53c6.142-5.91 11.844-11.967 17.151-18.654 1.977-2.465 4.014-4.862 6.087-7.247 6.947-8.026 13.187-16.537 19.407-25.132a2355 2355 0 0 1 5.159-7.093c5.783-7.949 11.48-15.941 16.916-24.132 6.445-9.564 6.445-9.564 11.502-11.025L1418 498c.727 1.617.727 1.617 1 4-1.414 2.82-1.414 2.82-3.625 6.125l-1.22 1.833c-8.742 13-18.175 25.546-27.633 38.031q-1.544 2.04-3.084 4.084c-8.198 10.883-16.682 21.488-25.438 31.927-.535.641-1.07 1.283-1.623 1.943-8.4 10.043-17 19.537-27.252 27.744l-1.601 1.296c-3.736 2.91-7.667 5.318-11.767 7.688l-3.269 1.894L1310 626l1.464 1.461a99926 99926 0 0 1 35.333 35.284q8.541 8.534 17.087 17.063 7.452 7.438 14.9 14.881 3.939 3.938 7.882 7.872 4.412 4.402 8.819 8.81l2.615 2.605c4.282 4.289 8.396 8.652 12.348 13.246 2.181 2.499 4.497 4.843 6.845 7.184l1.451 1.452q2.326 2.324 4.658 4.642l3.266 3.261q4.26 4.255 8.527 8.503 4.367 4.351 8.729 8.709A26189 26189 0 0 0 1461 778c-3.943 3.943-7.147 4.251-12.649 4.259l-1.997.01c-2.171.01-4.343.003-6.514-.003l-4.535.005q-4.747.005-9.495-.01c-4.057-.012-8.115-.005-12.173.007q-4.68.009-9.36 0-2.244-.003-4.489.005c-2.09.005-4.179-.003-6.269-.014l-3.604-.005C1387 782 1387 782 1384 780c-5.304-.93-10.329-1.054-15.703-.84-2.297-.16-2.297-.16-4.223-1.168-3.542-1.694-7.257-.969-11.101-.77-3.45-.258-5.085-1.404-7.973-3.222-2.142-.286-2.142-.286-4.187-.063L1337 774l-2-2c-2.04.032-4.079.067-6.117.125-2.555-.17-3.19-1.285-4.883-3.125-2.323-.4-4.657-.74-7-1l-1-1-2.812.125c-3.697-.145-4.373-.907-7.188-3.125a192 192 0 0 0-7-2 213 213 0 0 1-4.125-1.563c-2.16-.834-4.025-1.464-6.312-1.875-3.406-.747-6.342-2.219-9.477-3.722-2.175-1.027-2.175-1.027-5.086-.84v-2l-2.562-.813C1268 750 1268 750 1264.375 748.437c-2.513-1.07-4.718-1.906-7.375-2.437v-2l-2.125-.25c-3.54-.923-5.872-2.686-8.875-4.75q-2.495-1.01-5-2c-2.238-1.2-4.444-2.45-6.652-3.703-2.82-1.558-5.702-2.947-8.621-4.305-1.91-1.098-3.18-2.436-4.727-3.992l-2.625-1-2.375-1-1-3-2.375.187L1210 720c-2.142-3.213-2.254-4.067-2.278-7.765l-.034-2.97-.007-3.254-.03-3.43c-.031-3.75-.048-7.5-.065-11.249q-.028-3.894-.059-7.79-.068-9.21-.116-18.422c-.039-6.992-.088-13.983-.138-20.975q-.154-21.572-.273-43.145l-2.781 2.852-3.719 3.773-1.932 1.984c-3.285 3.318-6.23 5.979-10.38 8.19-2.875 2.035-3.166 3.095-3.887 6.633-.429 4.591-.358 9.173-.301 13.779q-.012 2.542-.033 5.086c-.028 4.45-.01 8.897.02 13.346.022 4.545-.002 9.09-.022 13.634-.033 8.908-.015 17.815.035 26.723l-3 1-2-2.625c-2.732-3.323-5.896-5.651-9.426-8.078L1168 686v-2l-1.562-.75L1164 682l-3.437-1.625c-3.754-2.125-5.248-4.818-7.325-8.504-1.83-2.765-4.49-4.057-7.238-5.871-1.76-2.021-3.338-4.14-4.937-6.29-2.484-3.263-5.1-6.394-7.75-9.523l-1.406-1.67c-1.954-2.304-3.93-4.54-6.067-6.677-1.734-1.734-3.168-3.472-4.59-5.465l-1.297-1.79C1119 633 1119 633 1119 631l-3-1c-1.5-1.89-1.5-1.89-3-4.25l-1.57-2.457L1110 621l-1.875-2.938C1107 616 1107 616 1107 614h-2c-1.523-2.105-1.523-2.105-3.375-5.188l-1.035-1.72A761 761 0 0 1 1097 601l-1.419-2.419c-8.279-14.162-15.945-28.451-22.581-43.456l-.92-2.075c-2.08-4.801-2.08-4.801-2.08-7.05l-1.363 1.031a976 976 0 0 1-4.172 3.125 463 463 0 0 0-5.024 3.813c-10.978 8.286-22.136 14.43-36.128 14.406l-2.373.004c-6.807-.123-12.694-1.636-18.94-4.379l-.684 1.586c-1.788 3.28-4.063 6.124-6.378 9.039l-1.484 1.877c-3.647 4.576-7.452 8.973-11.419 13.275-1.841 2.012-3.596 4.071-5.347 6.16C959.866 615.07 938.528 627.861 913 631c-18.626 1.1-36.404-2.632-50.929-14.83-10.15-9.135-17.002-20.105-21.071-33.17l-.707-2.254c-5.75-21.802-.608-44.62 10.352-63.855 6.747-11.365 14.577-21.665 23.761-31.157 2.593-2.656 2.593-2.656 4.723-5.398 2.885-3.602 6.363-6.357 9.871-9.336l2.777-2.473C905.135 456.737 920.231 447.232 936 439l1.96-1.03c16.795-8.69 35.3-15.232 54.04-17.97l2.602-.39c14.599-1.808 29.71-1.862 42.398 6.39a140 140 0 0 1 5 5l-.219-3.418c-1.11-18.318-.902-36.396.157-54.707l.131-2.318q.191-3.283.396-6.565l.238-3.864C1043 357 1043 357 1044 354c.07-2.573.094-5.116.063-7.688l-.014-2.126q-.02-2.594-.049-5.186l2-1c.624-2.471.624-2.471 1-5.438.612-4.013 1.231-8.013 2-12l.438-2.308c.562-2.254.562-2.254 1.53-4.602 1.236-3.177 1.87-6.31 2.532-9.652.842-4.245 1.89-7.999 3.5-12q.696-2.843 1.383-5.688c6.42-24.066 17.467-47.64 29.617-69.312l1.05-1.892c4.38-7.876 9.005-15.573 13.95-23.108l1.617-3.111C1107 186 1107 186 1110.49 185.262m126.838 259.562c-2.038 1.905-4.125 3.7-6.265 5.488-9.001 7.858-16.675 17.343-24.063 26.688l-1.607 2.025q-2.705 3.419-5.393 6.85l-1.689 2.141a194 194 0 0 0-3.312 4.376C1193 495 1193 495 1190.71 497.485c-8.741 10.438-7.875 21.006-7.588 34.097q.025 3.403.039 6.805c.034 5.93.122 11.86.222 17.789.093 6.067.133 12.134.179 18.201.096 11.875.249 23.749.439 35.623 9.03-4.292 18.456-13.683 24-22 .291-2.811.291-2.811.227-6.032v-3.76l-.032-4.063-.008-4.158c-.008-3.645-.028-7.29-.05-10.934-.02-3.72-.03-7.44-.04-11.16-.02-7.298-.055-14.595-.097-21.893h2c1.412 1.434 1.412 1.434 3.066 3.437 4.056 4.77 8.422 9.163 12.872 13.563l2.36 2.348A3307 3307 0 0 0 1234 551c2.546-2.44 4.683-4.788 6.559-7.773l1.398-2.213 1.48-2.389 1.583-2.537c1.67-2.69 3.327-5.388 4.98-8.088l1.601-2.606c26.189-39.248 26.189-39.248 35.004-83.964-1.27-5.095-3.894-8.914-7.792-12.368-16.105-6.084-30.148 5.156-41.485 15.762m-257.855 3.75a479 479 0 0 1-4.29 4.086c-6.598 6.374-12.24 13.19-17.762 20.483a289 289 0 0 1-4.23 5.369c-7.69 9.67-14.589 19.842-21.441 30.113l-1.411 2.11c-13.376 20.038-25.943 40.73-34.964 63.14l-.965 2.391c-4.12 10.635-7.592 24.327-2.972 35.296 2.935 4.82 8.15 8.275 13.44 10.079 16.815 2.848 31.59-3.458 45.255-12.778 5.957-4.365 11.505-9.08 16.906-14.113C969 593 969 593 971 592v-2l1.754-.742c7.322-4.1 12.96-13.256 18.246-19.696l1.746-2.115 1.629-2.006 1.46-1.79c1.362-1.762 1.362-1.762 2.165-4.651-1.077-1.6-1.077-1.6-2.687-3.125-7.136-7.914-9.925-18.979-9.56-29.543 2.104-19.926 10.312-40.464 25.247-54.332 6.378-5.142 13.787-9.67 22.25-8.813 3.14.681 5.85 1.453 8.75 2.813 2.215-2.215 1.309-7.566 1.321-10.634-.135-8.2-2.399-15.444-8.321-21.366-19.03-15.137-41.175.67-55.527 14.574M1047 477l-.512 1.651c-7.796 24.682-18.928 47.535-33.082 69.187-2.184 3.358-4.295 6.759-6.406 10.162 8.125 4.484 15.857 5.516 24.96 3.27 12.055-4.136 26.865-12.39 34.04-23.27-.58-3.144-1.673-6.158-2.672-9.191-4.6-14.092-8.816-28.182-12.226-42.61l-.79-3.324-.636-2.82L1049 478z"/><path fill="#0A0B0B" d="M547.629 123.918c5.77 2.633 13.364-.633 19.183-2.293 9.638-2.642 19.29-4.31 29.188-5.625l2.887-.402c14.65-1.768 29.213-1.584 41.918 6.668 5.58 4.408 9 9.684 10.195 16.734 2.237 21.075-9.809 39.408-22.405 55.078-5.048 6.083-10.363 12.297-16.505 17.285-2.529 2.565-2.529 2.565-1.736 6.34l.334 2.152c3.945 27.142 2.843 72.922-12.688 96.145-2.006.876-2.006.876-4 1l-2-2c.104-5.322 1.548-9.745 3.313-14.75 2.155-6.125 3.678-12.256 4.937-18.625l.493-2.483c1.653-8.684 2.408-17.151 2.355-25.99l-.005-2.719c-.005-2.832-.018-5.664-.03-8.495q-.009-2.902-.014-5.803-.017-7.067-.049-14.135c-7.666 6.053-7.666 6.053-15 12.5-4.837 4.396-9.853 8.474-15 12.5l-3.965 3.156c-9.818 7.778-19.876 15.053-30.291 22.007-3.032 2.03-6.05 4.078-9.068 6.126C514.754 288.388 499.59 297.956 484 307l-2.939 1.715c-39.596 23.01-81.682 43.207-125.686 56.16l-2.996.904c-4.424 1.288-8.591 2.343-13.195 2.659-4.541.388-8.447.77-12.184 3.562-5.863 7.397-9.41 16.347-13 25l-1.13 2.639c-1.745 4.08-3.38 8.179-4.87 12.361l3.969.344c23.936 2.693 48.098 17.88 63.164 36.258C392.076 470.37 401.185 496.305 400 524c10.873-2.582 20.204-6.695 30-12l3.527-1.875c23.697-13.029 45.477-30.977 65.364-49.195a276 276 0 0 1 5.921-5.243c10.896-9.523 21.242-19.58 31.456-29.825q3.184-3.19 6.377-6.37l4.128-4.133 1.888-1.882c3.765-3.784 7.343-7.687 10.83-11.73 1.94-2.246 3.943-4.433 5.947-6.622q2.286-2.557 4.562-5.125l1.93-2.156c5.2-6.129 9.163-12.854 13.226-19.757C597.316 347.52 611.173 327.737 626 309l2.2-2.79c22.553-28.1 22.553-28.1 36.8-32.21 5.941.198 5.941.198 8.676 2.27 2.624 3.428 1.837 7.637 1.324 11.73-3.944 14.978-15.594 27.41-25.777 38.555-2.133 2.347-4.21 4.735-6.285 7.132-3.078 3.473-6.332 6.508-9.872 9.5-2.294 2.013-4.425 4.139-6.566 6.313a172 172 0 0 1-10.336 9.621c-2.593 2.252-5.128 4.563-7.664 6.879-3.097 2.826-6.204 5.632-9.375 8.375l-1.922 1.703a203 203 0 0 1-5.094 4.281C581.822 389.016 575 399.622 568 411l-1.262 2.026c-19.95 32.267-25.918 70.57-33.476 107.165C517.94 594.288 490.677 665.953 429 714q-1.635 1.319-3.266 2.64c-69.67 56.173-165.885 76.715-253.84 68.051C126.738 779.677 82.962 764.157 50 732l-2.125-1.937C24.227 707.94 10.931 673.089 9.09 641.16L9 638l-.062-2.055c-1.421-54.395 22.2-103.211 59.18-142.177C76.628 484.966 85.192 476.36 95 469l1.608-1.233C140.843 433.867 198.35 408.307 255 409l-.07-3.48c-.13-9.418.236-18.25 2.07-27.52l-1.762-.12c-27.832-1.971-54.972-6.585-80.238-18.88l-2.937-1.39C150.003 346.45 134.675 327.311 127 304c-9.774-34.667-1.452-71.009 15.586-101.863 6.485-11.35 14.8-21.357 23.414-31.137l1.33-1.521c5.223-5.957 10.572-11.429 16.67-16.479l2.566-2.227c77.49-66.419 193.422-86.249 361.063-26.855M208 164l-2.75 2.168c-7.035 5.646-13.689 11.65-20.25 17.832l-2.371 2.207c-6.614 6.354-12.15 13.465-17.629 20.793l-2.348 3.121c-17.522 24.26-29.203 54.317-25.148 84.649 3.847 21.7 15.068 38.215 32.746 50.98 26.16 17.2 57.607 24.513 88.75 24.25l.516-1.87c14.649-52.699 42.129-100.87 85.847-135.048 2.404-1.898 4.707-3.88 7.006-5.9 50.241-43.844 116.492-71.992 178.757-93.858l3.515-1.25L537.72 131c2.436-.777 2.436-.777 3.28-2.999-37.573-20.887-76.626-32.498-119.687-32.312l-2.683.005C344.92 95.946 266.393 117.574 208 164m359-27c-.344 3.17-.344 3.17 2.203 5.32q1.521 1.406 3.047 2.805c17.126 16.47 27.18 37.698 34.75 59.875a4813 4813 0 0 0 5.151-4.4c13.433-11.622 28.493-30.983 30.185-49.221.088-8.603.077-13.589-5.844-20.016-6.62-6.359-14.687-7.92-23.617-7.8l-2.51.029c-15.667.445-29.312 7.065-43.365 13.408m-13.605 7.055-2.208 1.348-2.375 1.472-2.448 1.51c-26.792 16.614-51.655 35.72-75.637 56.147q-2.688 2.281-5.383 4.554c-5.693 4.82-11.261 9.642-16.445 15.016-1.7 1.7-3.44 3.244-5.278 4.789-5.722 4.971-11.028 10.366-16.376 15.733q-2.707 2.714-5.423 5.417c-5.278 5.275-10.497 10.545-15.338 16.23-2.522 2.938-5.203 5.726-7.859 8.541a260 260 0 0 0-13.262 15.297c-2.278 2.786-4.627 5.488-7.008 8.185-7.262 8.243-13.89 16.83-20.355 25.706l-3.219 4.379C347.215 338.72 340.03 349.286 333 360c4.056 1.352 7.07.211 11.063-.875l2.517-.68c47.968-13.34 93.906-36.32 136.524-61.725 2.91-1.728 5.83-3.436 8.755-5.138 10.006-5.835 19.819-11.834 29.374-18.38 2.46-1.673 4.944-3.307 7.426-4.944a584 584 0 0 0 21.37-14.827q2.1-1.525 4.207-3.041c10.112-7.286 19.835-14.799 29.193-23.03 3.347-2.898 6.813-5.652 10.266-8.423L596 217l2.367-1.75c2.016-2.298 2.016-2.298 1.535-6.04C596.6 191.355 586.084 174.069 575 160l-1.992-2.605C568.756 151.927 564.32 146.472 559 142c-2.502 0-3.478.751-5.605 2.055M189 439l-2.095 1.006C169.39 448.553 153.098 459.71 138 472l-1.558 1.266C103.627 500.088 77.127 532.583 59 571l-.914 1.924C49.982 590.168 44.156 608.205 41 627l-.355 2.105c-5.047 31.498-1.401 64.256 17.292 90.77A175 175 0 0 0 71 735l2.383 2.46C93.946 757.396 122.166 767.06 150 771l3.906.563c7.495.79 15.065.681 22.594.687l2.488.002c35.314-.046 70.776-6.167 102.012-23.252l4.05-2.156c9.17-4.95 17.65-10.556 25.95-16.844l1.757-1.32c8.342-6.296 16.102-13.05 23.69-20.229 2.437-2.277 4.94-4.48 7.428-6.701 7.473-6.84 14.287-14.285 21.125-21.75l2.637-2.86c5.351-5.865 10.374-11.966 15.363-18.14l3-3.656c7.887-9.619 15.508-19.416 23-29.344l1.821-2.408c13.167-17.417 25.912-35.103 38.384-53.023q2.595-3.71 5.217-7.401c10.825-15.332 21.103-31.016 31.375-46.723 5.322-8.126 10.63-16.213 16.427-24.01 3.365-4.613 6.453-9.414 9.589-14.185 5.76-8.705 11.69-17.217 17.944-25.572 2.104-2.84 4.139-5.73 6.18-8.615C541.474 436.26 547.234 428.63 553 421l-1-2a701 701 0 0 0-3.062 3l-1.723 1.688c-1.833 1.913-3.554 3.86-5.278 5.87-4.26 4.899-8.827 9.482-13.425 14.06a1509 1509 0 0 0-4.33 4.337c-4.654 4.657-9.365 9.189-14.365 13.473-2.96 2.56-5.783 5.263-8.63 7.947C495.326 474.854 489.28 480.002 483 485q-1.728 1.414-3.453 2.832A315 315 0 0 1 452 508l-1.826 1.19C434.61 519.208 417.891 527.192 400 532l-.288 1.993c-6.99 47.7-24.66 92.405-58.532 127.554-2.214 2.264-2.214 2.264-3.235 4.656-1.24 2.358-2.566 2.676-4.945 3.797a93 93 0 0 0-3.937 4C300.309 703.268 258.54 720.508 218 723l-3.559.219c-26.955.762-52.377-7.378-72.726-25.223-17.167-16.373-25.307-39.705-26.051-63.02-.518-34.07 15.02-65.737 38.344-89.949 23.688-24.106 54.47-40.184 88.617-41.465 12.887.394 26.702 4.05 37.375 11.438 2.992 3.731 4 5.159 4 10-6.265-.136-9.548-2.6-14.504-6.281-3.397-2.34-6.565-3.499-10.496-4.719l-1.738-.55c-19.205-3.815-38.196 3.547-54.032 13.976-9.199 6.297-17.452 13.592-25.23 21.574l-1.723 1.621C152.151 573.691 134.32 608.438 133 642c-.361 19.473 5.13 37.572 18.75 51.79 16.82 16.527 36.953 22.857 60.25 23.398 46.442-.66 87.994-23.147 119.957-55.95 3.881-4.252 7.46-8.736 11.043-13.238l1.992-2.395C370.654 614.533 388.787 574.321 392 534l-1.95.208c-25.205 2.51-48.279 1.354-71.05-10.208l-3.133-1.55c-26.437-14.206-44.434-41.778-52.998-69.961-3.213-11.3-5.042-22.9-6.869-34.489-22.326 0-47.134 11.45-67 21m116-19c-8.334 23.002-8.846 49.333 1.277 71.84 3.564 7.039 8.173 12.59 13.723 18.16l1.863 1.934C335.378 524.927 353.983 527.943 372 528c6.386-.142 12.804-.362 19-2 1.03-29.01-5.733-52.452-25.437-74.312C349.942 434.964 327.993 422.532 305 420"/><path fill="#0468CC" d="M1110.49 185.262a103 103 0 0 1 4.28.016l2.386-.015c2.642-.01 5.282.023 7.923.056q2.838.002 5.677-.003c5.14-.002 10.28.034 15.42.076 5.37.037 10.74.04 16.112.048 10.171.018 20.342.068 30.514.128 11.579.067 23.158.1 34.737.13 23.82.063 47.64.168 71.461.302l1 2-2 1.937c-2.394 2.38-4.602 4.887-6.812 7.438-3.2 3.634-6.565 6.818-10.25 9.95-4.245 3.67-8.113 7.665-11.72 11.96-6.024 6.905-12.642 13.261-19.13 19.725l-4.55 4.546a16295 16295 0 0 1-9.77 9.75 25403 25403 0 0 0-15.457 15.434 117873 117873 0 0 1-35.6 35.544 97868 97868 0 0 0-32.637 32.589q-7.674 7.666-15.356 15.327-4.783 4.773-9.562 9.55l-4.423 4.41c-9.442 9.358-9.442 9.358-18.345 19.223-2.246 2.616-4.67 5.046-7.108 7.482l-1.59 1.6q-2.554 2.567-5.116 5.129l-3.587 3.598q-3.735 3.744-7.477 7.483-4.799 4.802-9.586 9.617a4441 4441 0 0 1-7.389 7.402 1812 1812 0 0 0-3.537 3.55q-2.457 2.469-4.925 4.926l-1.475 1.492c-3.37 3.338-3.37 3.338-5.598 3.338-6.954-8.314-5.899-18.784-6-29l-.117-4.773c-.21-11.475.393-22.902 1.055-34.352l.131-2.318q.191-3.283.396-6.565l.238-3.864C1043 357 1043 357 1044 354c.07-2.573.094-5.116.063-7.688l-.014-2.126q-.02-2.594-.049-5.186l2-1c.624-2.471.624-2.471 1-5.438.612-4.013 1.231-8.013 2-12l.438-2.308c.562-2.254.562-2.254 1.53-4.602 1.236-3.177 1.87-6.31 2.532-9.652.842-4.245 1.89-7.999 3.5-12q.696-2.843 1.383-5.688c6.42-24.066 17.467-47.64 29.617-69.312l1.05-1.892c4.38-7.876 9.005-15.573 13.95-23.108l1.617-3.111C1107 186 1107 186 1110.49 185.262"/><path fill="#070707" d="m2077 421 3.504.438c23.46 2.697 47.062 2.316 70.496-.438-.669 3.468-2.047 6.086-3.816 9.129l-1.792 3.095-1.954 3.339-2.025 3.483c-6.78 11.65-13.663 23.237-20.552 34.822a5388 5388 0 0 0-8.173 13.82c-5.024 8.51-10.068 17.007-15.115 25.503q-4.252 7.158-8.501 14.319-1.842 3.104-3.687 6.207c-7.319 12.32-14.397 24.772-21.385 37.283l-1.244 2.213c-11.239 18.81-11.239 18.81-14.756 39.787.9 2.549 1.564 3.705 3.813 5.227 8.345 2.95 17.46.292 25.187-3.227 21.31-11.552 38.053-30.047 52.558-49.125a368 368 0 0 1 4.637-5.875c9.99-12.515 18.96-25.66 27.805-39l1.778-2.681c16.322-24.706 31.695-50.004 46.46-75.667l1.044-1.813q2.475-4.303 4.935-8.616l1.771-3.094 1.548-2.717c1.386-2.283 2.687-4.416 4.464-6.412 2.887.047 2.887.047 6.688.75 8.591 1.318 17.137 1.513 25.812 1.5l2.075-.002c13.198-.043 26.294-.9 39.425-2.248-1.233 4.07-2.697 7.448-4.984 11.027l-1.813 2.864c-.645 1.006-1.29 2.01-1.953 3.046q-2.052 3.242-4.102 6.485l-2.102 3.322c-3.11 4.95-6.144 9.943-9.171 14.943a1710 1710 0 0 1-11.765 19.169c-7.008 11.236-13.712 22.634-20.344 34.096-2.91 5.023-5.839 10.035-8.766 15.048l-3.496 5.996a6941 6941 0 0 1-7.04 12.04q-5.252 8.97-10.464 17.964l-1.749 3.015c-5.609 9.7-11.175 19.428-16.126 29.485l-1.03 2.011c-2.153 4.536-2.373 7.648-1.095 12.489 2.73 3.22 4.886 5.735 9.18 6.273 18.826.71 33.801-13.248 46.82-25.273 26.137-24.64 47.343-55.15 67.4-84.788 6.82-10.043 6.82-10.043 11.35-11.024L2330 499c-.286 6.333-3.648 10.318-7.25 15.25l-1.9 2.653a1268 1268 0 0 1-3.92 5.435q-2.715 3.749-5.399 7.517c-6.332 8.859-12.816 17.573-19.531 26.145l-1.319 1.685q-3.439 4.39-6.892 8.768a856 856 0 0 0-5.578 7.156c-5.08 6.567-10.292 12.859-15.95 18.942-1.963 2.126-3.837 4.296-5.698 6.511-15.135 17.242-35.17 30.42-58.45 32.153-14.068.46-26.082-3.445-36.875-12.543-11.389-10.827-17.261-23.199-17.658-38.88-.051-8.676.358-16.583 3.42-24.792l-2.238 3.043c-9.868 13.337-20.396 25.876-31.762 37.957-.726.78-1.451 1.56-2.2 2.363-16.57 17.244-38.744 32.107-63.238 32.95-15.03-.344-26.312-6.673-36.562-17.313-10.692-12.63-12.997-26.87-12-43 3.388-28.317 22.184-53.945 36.747-77.68 10.415-16.992 20.425-34.186 29.86-51.743 2.345-4.337 4.743-8.645 7.143-12.952l1.306-2.346q1.47-2.64 2.944-5.279"/><path fill="#0235FE" d="M1356 30a64 64 0 0 1 2.963 3.37c4.408 5.153 9.198 9.904 14.008 14.676q2.49 2.472 4.973 4.949 5.275 5.256 10.556 10.505 6.128 6.091 12.247 12.191 2.43 2.419 4.864 4.832c8.162 8.122 8.162 8.122 11.816 12.402 5.102 5.96 10.774 11.399 16.33 16.93q1.852 1.848 3.701 3.697 4.843 4.836 9.69 9.665 4.926 4.912 9.848 9.828 7.95 7.936 15.906 15.868 3.406 3.396 6.803 6.8a244 244 0 0 0 4.608 4.475C1486 162 1486 162 1486 164c-4.499.715-8.805 1.122-13.359 1.107l-3.758-.004-4.088-.02q-2.187-.006-4.374-.01-5.996-.016-11.993-.041-6.471-.024-12.942-.04-11.207-.031-22.415-.071-16.205-.059-32.408-.105-26.291-.078-52.582-.168-25.537-.087-51.075-.166l-3.18-.01-15.797-.048Q1192.515 164.22 1127 164c0-5.326 1.413-6.242 5-10h2l.938-1.875L1137 148h2l.688-1.625c1.768-3.2 3.849-5.665 6.312-8.375h2v-2h2v-2h2v-2h2v-2h2v-2c1.46-1.508 1.46-1.508 3.375-3.125l1.898-1.633C1163 122 1163 122 1165 122v-2h2v-2c4.47-4 4.47-4 7-4v-2l3-2 1-3c1.914-.94 3.83-1.875 5.762-2.777 3.112-1.7 5.485-3.961 8.09-6.344 9.451-8.266 9.451-8.266 14.382-9.387L1208 88l1-3c1.99-1.02 3.993-2.014 6-3 2.614-1.778 5.175-3.616 7.73-5.477C1225 75 1225 75 1228 74l1-2 4-1 1-2a649 649 0 0 1 5.277-1.879c4.285-1.764 8.297-4.022 12.354-6.252 3.395-1.858 6.751-3.499 10.369-4.869 3.17-1.522 6.071-3.048 9-5q1.992-.53 4-1c2.364-.886 4.632-1.807 6.867-2.98 2.23-1.067 4.377-1.736 6.758-2.395 4.492-1.3 8.752-2.925 13.05-4.758 2.433-.907 4.778-1.38 7.325-1.867q2.263-.713 4.5-1.5c3.159-1.083 6.22-1.862 9.5-2.5a156 156 0 0 0 5-2c3.336-1.112 6.519-1.52 10-2l2.5-.5 2.5-.5 3.438-.687c4.074-.358 5.932-.203 9.562 1.687"/><path fill="#6767FE" d="M1358 639a157352 157352 0 0 1 147.76-.165l3.138-.002q25.147-.022 50.294-.064 25.804-.043 51.607-.051 15.923-.005 31.844-.042 10.919-.023 21.836-.017c4.2.002 8.4 0 12.599-.017q5.771-.02 11.542-.005 2.085.003 4.168-.012c7.738-.05 14.018.43 21.212 3.375-1.771 3.696-3.965 6.786-6.437 10.063l-2.372 3.16c-2.663 3.375-5.489 6.065-8.754 8.84a254 254 0 0 0-9.812 9.062l-2.523 2.445c-2.22 2.298-2.22 2.298-3.172 5.125-1.309 3.244-3.513 3.647-6.57 5.008-5.538 3.044-10.082 7.938-14.446 12.457-2.16 2.077-4.518 3.357-7.137 4.785-2.215 1.315-4.104 2.944-6.043 4.633-2.997 2.457-6.225 4.59-9.414 6.79a90 90 0 0 0-5.007 3.82c-3.61 2.828-7.542 4.973-11.688 6.937-1.816.777-1.816.777-2.625 2.875a287 287 0 0 1-4.852 2.023c-2.448 1.114-4.67 2.443-6.96 3.852-5.728 3.51-11.61 6.794-17.918 9.14-2.428.765-2.428.765-3.27 2.985h-5v2l-1.941.516c-4.178 1.17-8.072 2.305-11.809 4.547-3.061 1.825-5.892 2.818-9.25 3.937l-1 2-2.437-.25c-3.969.278-6.324 1.405-9.856 3.102-4.389 1.861-8.97 2.994-13.57 4.218-2.611.774-4.728 1.712-7.137 2.93l-2.5-.062c-2.599-.179-2.599-.179-4.562 1.625L1514 772l-1.937-.5-2.063-.5-2.25 1.438c-3.805 2.161-6.398 1.702-10.75 1.562-3.075.776-3.075.776-5 3l-1.68-1.934-2.195-2.504-2.18-2.496c-1.777-2.126-1.777-2.126-3.945-3.066v-2l-3-1a288 288 0 0 1-3.687-4.531c-1.334-1.646-1.334-1.646-3.688-2.844-2.578-1.596-3.9-2.971-5.832-5.264-3.533-4.106-7.257-7.947-11.105-11.755l-2.102-2.092a4327 4327 0 0 0-4.475-4.448q-3.54-3.514-7.071-7.035a18947 18947 0 0 0-20.09-19.985 9119 9119 0 0 1-12.318-12.263q-2.346-2.336-4.697-4.667-3.269-3.245-6.529-6.498l-1.978-1.952C1391 676.228 1391 676.228 1391 674h-2c-1.332-1.355-1.332-1.355-2.812-3.187-3.603-4.334-7.426-8.197-11.75-11.813-2.884-2.43-5.09-5.045-7.438-8a318 318 0 0 0-6-5 176 176 0 0 1-4-4z"/><path fill="#040404" d="M2809 221c1 3 1 3-.24 5.578l-1.924 3.102-1.04 1.697a812 812 0 0 1-3.421 5.498q-1.181 1.912-2.36 3.826a2441 2441 0 0 1-5.926 9.548 2028 2028 0 0 0-4.66 7.536 4245 4245 0 0 1-7.882 12.725q-3.935 6.335-7.86 12.678l-1.609 2.598c-7.049 11.39-14.061 22.803-21.078 34.214l-8.187 13.313-2.019 3.28a6625 6625 0 0 1-12.419 20.094c-6.263 10.103-12.444 20.255-18.613 30.415q-2.611 4.295-5.23 8.586C2633.864 510.929 2633.864 510.929 2572 631l-3.023-.656c-22.32-4.476-44.603-2.465-66.977.656.591-3.87 1.742-6.716 3.668-10.113l1.686-2.995 1.834-3.205 1.895-3.35c4.855-8.552 9.82-17.039 14.8-25.517 4.393-7.506 8.592-15.103 12.726-22.754 3.79-7.004 7.712-13.925 11.685-20.827 4.102-7.143 8.098-14.342 12.081-21.552 5.32-9.62 10.778-19.145 16.35-28.621 5.078-8.662 9.957-17.427 14.812-26.215a1336 1336 0 0 1 11.4-20.226c4.374-7.6 8.633-15.26 12.852-22.948 7.277-13.257 14.747-26.391 22.348-39.467 2.522-4.346 5.03-8.7 7.537-13.055 8.295-14.405 16.668-28.763 25.055-43.114A6375 6375 0 0 0 2692.5 293a5619 5619 0 0 1 18.004-31.012q3.65-6.246 7.273-12.508l1.889-3.255a3054 3054 0 0 0 3.541-6.122A268 268 0 0 1 2734 223l1.98.403q2.572.52 5.149 1.019c1.744.351 3.484.73 5.21 1.156 20.494 4.65 42.673.667 62.661-4.578"/><path fill="#FE04FE" d="m1399.32 20.855 3.368-.02 3.652-.003 3.736-.01q3.918-.007 7.836-.007 4.023 0 8.046-.02c3.856-.02 7.713-.024 11.57-.025l3.645-.022 3.378.01 2.976-.005C1450 21 1450 21 1453 23c2.448.324 4.91.54 7.375.687l3.96.262c3.553.185 3.553.185 6.517-.554L1473 23l2 2c4.1 1.454 8.257.983 12.54.84C1490 26 1490 26 1492 28c2.597.388 2.597.388 5.5.5 5.278.278 5.278.278 7.5 2.5h8l2 2c1.907.384 1.907.384 4 .5 3.778.278 3.778.278 6 2.5q3.495.526 7 1a104 104 0 0 1 5 2 52 52 0 0 0 6.5 1.375c2.5.625 2.5.625 4.191 2.004 3.024 2.123 6.255 3.102 9.746 4.183 4.25 1.35 8.431 2.758 12.563 4.438l2 .437c2.663.75 4.657 2.092 7 3.563a335 335 0 0 0 3.5 2.062l1.656.973c1.879 1.027 1.879 1.027 4.106 1.844 3.483 1.426 6.749 3.2 10.05 4.996 3.99 2.155 7.969 4.298 12.063 6.25 3.79 1.849 7.194 4.193 10.645 6.605 2.052 1.43 2.052 1.43 4.98 2.27l3 3 2.625 1.437C1634 86 1634 86 1634.635 87.805c.386 2.324.527 4.529.573 6.885l.06 2.846.052 3.1c.02 1.084.042 2.168.064 3.284.182 9.995.289 19.99.372 29.987.056 6.71.136 13.42.28 20.129.136 6.495.209 12.988.236 19.485q.033 3.703.133 7.405c.53 20.316.53 20.316-4.24 26.206-3.09 3.13-6.48 5.485-10.165 7.868a137 137 0 0 0-4.188 3.625l-1.851 1.605c-6.795 6.132-13.063 12.778-18.961 19.77-3.014-1.35-5.103-2.856-7.426-5.195l-1.916-1.922-1.97-2.008-1.936-1.938c-3.048-3.075-5.977-6.196-8.792-9.486-4.301-4.936-8.936-9.525-13.59-14.125q-2.38-2.356-4.752-4.717a8520 8520 0 0 0-13.495-13.39 4121 4121 0 0 1-8.29-8.236q-1.576-1.566-3.158-3.127a1204 1204 0 0 1-4.38-4.35l-2.52-2.497C1523 167 1523 167 1523 165l-1.938-.813C1519 163 1519 163 1518 160l-1.668-.805c-3.497-1.792-5.914-4.53-8.645-7.32l-1.646-1.648a181 181 0 0 1-8.393-9.075c-4.051-4.674-8.352-9.077-12.71-13.465l-2.354-2.416c-4.436-4.511-4.436-4.511-9.768-7.814-3.53-1.826-4.913-4.045-7.164-7.25-2.957-3.95-6.556-7.277-10.09-10.707q-2.189-2.138-4.37-4.281l-1.932-1.877c-1.868-1.936-3.616-3.905-5.366-5.946-4.102-4.719-8.5-9.116-12.94-13.516q-2.236-2.22-4.468-4.445-4.74-4.721-9.486-9.435a9533 9533 0 0 1-11.008-10.952q-2.18-2.17-4.365-4.333c-4.58-4.564-9.033-9.169-13.227-14.092-1.704-1.976-3.518-3.817-5.4-5.623l1.898-.621 2.477-.817 2.46-.808c3.543-1.234 5.64-1.884 9.485-1.9"/><path fill="#0299FE" d="m1242 550 1 2c-.7 1.84-1.487 3.65-2.312 5.438-6.24 14.47-5.93 29.126-.47 43.847 5.905 12.71 15.127 21.693 28.282 26.59 12.602 3.34 25.724 1.247 37.893-2.639 2.607-.236 2.607-.236 4.702 1.118l2.104 2.116 2.438 2.409 2.632 2.693 2.806 2.798c2.542 2.537 5.066 5.092 7.587 7.65 2.644 2.679 5.306 5.341 7.965 8.005q6.705 6.724 13.381 13.476a7086 7086 0 0 0 18.816 18.936q7.339 7.368 14.668 14.747l1.578 1.587a5670 5670 0 0 1 9.015 9.091 3334 3334 0 0 0 4.007 4.04c4.272 4.324 8.39 8.719 12.357 13.324 2.182 2.496 4.497 4.84 6.844 7.18l1.451 1.452q2.326 2.324 4.658 4.642l3.266 3.261q4.26 4.255 8.527 8.503 4.367 4.352 8.729 8.709A26189 26189 0 0 0 1461 778c-3.943 3.943-7.147 4.251-12.649 4.259l-1.997.01c-2.171.01-4.343.003-6.514-.003l-4.535.005q-4.748.005-9.495-.01c-4.057-.012-8.115-.005-12.173.007q-4.68.009-9.36 0-2.244-.003-4.489.005c-2.09.005-4.179-.003-6.269-.014l-3.604-.005C1387 782 1387 782 1384 780c-5.304-.93-10.329-1.054-15.703-.84-2.297-.16-2.297-.16-4.223-1.168-3.542-1.694-7.257-.969-11.101-.77-3.45-.258-5.085-1.404-7.973-3.222-2.142-.286-2.142-.286-4.187-.062L1337 774l-2-2c-2.04.032-4.079.067-6.117.125-2.555-.17-3.19-1.285-4.883-3.125-2.323-.4-4.657-.74-7-1l-1-1-2.812.125c-3.697-.145-4.373-.907-7.188-3.125a192 192 0 0 0-7-2 213 213 0 0 1-4.125-1.562c-2.16-.835-4.025-1.465-6.312-1.875-3.406-.748-6.342-2.22-9.477-3.723-2.175-1.027-2.175-1.027-5.086-.84v-2l-2.562-.812C1268 750 1268 750 1264.375 748.438c-2.513-1.071-4.718-1.907-7.375-2.438v-2l-2.125-.25c-3.54-.923-5.872-2.686-8.875-4.75q-2.495-1.01-5-2c-2.238-1.2-4.444-2.45-6.652-3.703-2.82-1.558-5.702-2.947-8.621-4.305-1.91-1.098-3.18-2.436-4.727-3.992l-2.625-1-2.375-1-1-3-2.375.188L1210 720c-2.12-3.18-2.268-4.078-2.36-7.74l-.086-2.955-.063-3.24-.09-3.416c-.091-3.742-.167-7.484-.237-11.227l-.073-3.88c-.098-5.389-.192-10.778-.268-16.167-.11-7.692-.26-15.381-.467-23.072-.16-6.079-.25-12.158-.32-18.24q-.06-3.858-.18-7.716c-.709-23.251-.709-23.251 6.931-32.163a113 113 0 0 1 4.747-4.723c2.312-2.305 4.05-4.878 5.892-7.57l1.974-2.848 1.912-2.793 1.971-2.84c4.399-6.371 8.604-12.851 12.717-19.41"/><path fill="#09090A" d="M789.266 427.79c6.646 6.178 10.345 13.59 10.972 22.651 1.04 37.97-20.091 76.926-42.238 106.559 6.942 4.356 12.889 4.948 21 4 24.515-6.04 42.394-27.7 56.656-47.169 9.082-12.376 9.082-12.376 13.344-15.831 2.313.188 2.313.188 4 1-.486 5.084-2.045 8.057-5 12.188l-1.223 1.713c-4.021 5.565-8.342 10.86-12.777 16.099q-1.407 1.704-2.812 3.41C818.139 548.116 802.628 563.376 782 568c-10.714.654-20 .392-30-4l-.684 1.586c-1.788 3.28-4.063 6.124-6.379 9.039l-1.483 1.877c-3.647 4.576-7.452 8.973-11.419 13.275-1.841 2.012-3.596 4.071-5.347 6.16C709.866 615.07 688.528 627.862 663 631c-18.626 1.1-36.404-2.632-50.929-14.83-10.15-9.135-17.002-20.105-21.071-33.17l-.707-2.254c-5.75-21.802-.608-44.62 10.352-63.855 6.747-11.365 14.577-21.665 23.761-31.157 2.593-2.656 2.593-2.656 4.723-5.398 2.885-3.602 6.363-6.357 9.871-9.336l2.777-2.473C655.135 456.737 670.231 447.232 686 439l1.96-1.03c16.795-8.69 35.3-15.232 54.04-17.97l2.602-.39c15.539-1.924 31.876-1.919 44.664 8.18m-59.793 20.784a479 479 0 0 1-4.29 4.086c-6.598 6.374-12.24 13.19-17.762 20.483a289 289 0 0 1-4.23 5.369c-7.69 9.67-14.589 19.842-21.441 30.113l-1.411 2.11c-13.376 20.038-25.943 40.73-34.964 63.14l-.965 2.391c-4.12 10.635-7.592 24.327-2.972 35.297 2.935 4.818 8.15 8.274 13.44 10.078 16.815 2.848 31.59-3.458 45.255-12.778 5.957-4.365 11.505-9.08 16.906-14.113C719 593 719 593 721 592v-2l1.754-.742c7.322-4.1 12.96-13.256 18.246-19.696l1.746-2.115 1.629-2.006 1.46-1.79c1.362-1.762 1.362-1.762 2.165-4.651-1.077-1.6-1.077-1.6-2.687-3.125-7.136-7.914-9.925-18.979-9.56-29.543C737.858 506.406 746.066 485.868 761 472c6.378-5.142 13.787-9.67 22.25-8.812 3.14.68 5.85 1.452 8.75 2.812 2.215-2.215 1.309-7.566 1.321-10.634-.135-8.2-2.399-15.444-8.321-21.366-19.03-15.137-41.175.67-55.527 14.574"/><path fill="#080809" d="M1039.008 427.79c9.666 10.502 11.61 20.243 11.141 34.082-.278 3.963-1.256 7.654-2.372 11.452-.72 2.483-1.18 4.877-1.59 7.426-5.38 26.904-21.917 54.48-38.187 76.25 6.942 4.356 12.889 4.948 21 4 9.71-2.392 18.29-7.413 26.078-13.57 1.922-1.43 1.922-1.43 4.313-2.758 3.178-2.037 5.592-4.522 8.109-7.297l1.56-1.705c7.529-8.38 14.187-17.504 20.807-26.607l1.353-1.83a582 582 0 0 0 3.561-4.89c2.454-2.59 3.715-3.096 7.219-3.343l1 2c-3.158 7.97-8.69 14.376-14 21l-2.266 2.86A294 294 0 0 1 1064 550l-1.746 1.738c-12.594 11.721-26.775 17.106-43.8 16.633-5.852-.342-11.106-2.022-16.454-4.371l-.684 1.586c-1.788 3.28-4.063 6.124-6.379 9.039l-1.483 1.877c-3.647 4.576-7.452 8.973-11.419 13.275-1.841 2.012-3.596 4.071-5.347 6.16C959.866 615.07 938.528 627.862 913 631c-18.626 1.1-36.404-2.632-50.929-14.83-10.15-9.135-17.002-20.105-21.071-33.17l-.707-2.254c-5.75-21.802-.608-44.62 10.352-63.855 6.747-11.365 14.577-21.665 23.761-31.157 2.593-2.656 2.593-2.656 4.723-5.398 2.885-3.602 6.363-6.357 9.871-9.336l2.777-2.473C905.135 456.737 920.231 447.232 936 439l1.96-1.03c16.795-8.69 35.3-15.232 54.04-17.97l2.602-.39c14.848-1.838 32.52-2.411 44.406 8.18m-59.535 20.784a479 479 0 0 1-4.29 4.086c-6.598 6.374-12.24 13.19-17.762 20.483a289 289 0 0 1-4.23 5.369c-7.69 9.67-14.589 19.842-21.441 30.113l-1.411 2.11c-13.376 20.038-25.943 40.73-34.964 63.14l-.965 2.391c-4.12 10.635-7.592 24.327-2.972 35.297 2.935 4.818 8.15 8.274 13.44 10.078 16.815 2.848 31.59-3.458 45.255-12.778 5.957-4.365 11.505-9.08 16.906-14.113C969 593 969 593 971 592v-2l1.754-.742c7.322-4.1 12.96-13.256 18.246-19.696l1.746-2.115 1.629-2.006 1.46-1.79c1.362-1.762 1.362-1.762 2.165-4.651-1.077-1.6-1.077-1.6-2.687-3.125-7.136-7.914-9.925-18.979-9.56-29.543 2.104-19.926 10.312-40.464 25.247-54.332 6.378-5.142 13.787-9.67 22.25-8.812 3.14.68 5.85 1.452 8.75 2.812 2.215-2.215 1.309-7.566 1.321-10.634-.135-8.2-2.399-15.444-8.321-21.366-19.03-15.137-41.175.67-55.527 14.574"/><path fill="#090909" d="m2482.938 418.625 2.87-.042c10.288.07 18.524 2.444 26.192 9.417 8.247 8.476 10.016 20.325 10.313 31.688-.418 22.5-8.72 43.963-24.313 60.312-9.297 7.924-16.91 11.708-29.266 11.402-6.493-.7-11.314-2.615-15.64-7.597-5.769-8.245-6.285-16.677-4.633-26.563 3.422-12.843 12.47-21.794 23.52-28.55 8.113-4.545 16.703-8.064 25.363-11.419 3.71-1.778 6.674-3.772 8.949-7.25 1.688-4.83 1.238-9.617-.543-14.336-2.985-4.584-5.01-6.739-10.375-8.125-9.649-1.57-17.662 3.075-25.375 8.438-12.978 9.542-24.093 21.363-34 34q-1.358 1.659-2.723 3.313c-25.057 30.51-60.327 76.854-59.175 118.347 1.096 9.36 4.509 16.112 11.87 22.024 11.241 7.298 26.064 8.133 38.981 5.668 23.913-5.953 43.867-19.771 61.781-36.27a240 240 0 0 1 6.329-5.582c7.216-6.3 13.742-13.206 19.937-20.5l2.563-2.969A344 344 0 0 0 2533 532l1.509-2.068c7.202-9.856 7.202-9.856 14.182-19.87l1.227-1.804a844 844 0 0 0 3.18-4.754c1.82-2.395 3.317-3.983 5.902-5.504 2.75.313 2.75.313 5 1-1.466 5.727-4.41 9.77-7.875 14.438l-1.753 2.393c-5.123 6.942-10.482 13.678-15.922 20.372-2.412 2.99-4.773 6.02-7.137 9.047-17.337 22.099-36.275 44.4-59.313 60.75l-1.741 1.27c-24.664 17.893-52.783 26.658-83.322 23.043-16.966-2.777-32.114-9.9-44.937-21.313l-2.148-1.898c-13.951-13.096-20.575-31.747-21.227-50.602 1.023-28.487 16.514-52.968 35.367-73.281a92 92 0 0 0 4.04-4.797c1.756-2.162 3.47-3.884 5.593-5.672 2.22-1.886 4.403-3.776 6.52-5.777 22.882-21.558 53.33-37.653 83.855-44.973l2.01-.492c8.948-2.103 17.744-2.797 26.927-2.883"/><path fill="#07CAFC" d="m1182 338 2 1v102l2 1-2.465 1.328c-38.764 21.453-77.854 56.319-90.566 100.235-4.474 18.557-2.355 39.576 7.629 56.078 1.71 2.539 3.512 4.952 5.402 7.359l1.734 2.305c8.6 10.62 20.805 17.565 34.266 19.695 13.944 1.342 26.777-.463 38.855-7.89L1183 620l2 1-1 76-3 1-2-2.625c-2.732-3.323-5.896-5.651-9.426-8.078L1168 686v-2l-1.562-.75L1164 682l-3.437-1.625c-3.754-2.125-5.248-4.818-7.325-8.504-1.83-2.765-4.49-4.057-7.238-5.871-1.76-2.021-3.338-4.14-4.937-6.29-2.484-3.263-5.1-6.394-7.75-9.523l-1.406-1.67c-1.954-2.304-3.93-4.54-6.067-6.677-1.734-1.734-3.168-3.472-4.59-5.465l-1.297-1.79C1119 633 1119 633 1119 631l-3-1c-1.5-1.89-1.5-1.89-3-4.25l-1.57-2.457L1110 621l-1.875-2.937C1107 616 1107 616 1107 614h-2c-1.523-2.105-1.523-2.105-3.375-5.187l-1.035-1.722A761 761 0 0 1 1097 601l-1.419-2.419c-8.279-14.162-15.945-28.451-22.581-43.456l-.92-2.075c-2.08-4.801-2.08-4.801-2.08-7.05l-2-1 1.434-1.363c5.673-5.52 10.667-11.427 15.566-17.637l1.276-1.617c9.793-11.207 9.793-11.207 15.724-24.383-3.615.23-4.807.794-7.324 3.484a169 169 0 0 0-2.363 3.266l-2.633 3.566-1.345 1.852a451 451 0 0 1-6.398 8.52l-1.25 1.634c-3.332 4.314-6.882 8.377-10.582 12.377-2.637 2.882-5.124 5.88-7.597 8.903C1061 545 1061 545 1058 545l1.566-1.39 1.996-1.86 2.004-1.828L1065 538c-.28-1.886-.28-1.886-1-4l-.769-2.448-.903-2.743c-4.194-12.85-8.072-25.691-11.328-38.809l-.969-3.836q-1.027-4.079-2.031-8.164l-2 1 1-7h3a101 101 0 0 0 6.016-5.66l1.83-1.822c1.998-1.996 3.986-4.003 5.974-6.01l4.15-4.156q4.352-4.36 8.69-8.731 5.572-5.611 11.162-11.205 4.285-4.293 8.565-8.591 2.058-2.067 4.117-4.131a3487 3487 0 0 0 5.739-5.776l1.731-1.735c2.864-2.827 2.864-2.827 5.026-6.183h2v-2h2v-2h2v-2h2v-2h2v-2h2v-2h2v-2h2v-2h2v-2h2v-2h2v-2h2v-2h2v-2h2v-2h2v-2h2v-2a127 127 0 0 1 5-5 1053 1053 0 0 0 2.999-2.967l1.607-1.588q3.575-3.537 7.142-7.083 1.88-1.864 3.765-3.724 2.737-2.704 5.464-5.42l1.695-1.663c2.997-2.997 5.203-5.855 7.328-9.555z"/><path fill="#0B0B0C" d="M2791 423c7.5 4.98 11.826 11.367 14.61 19.86 3.194 17.506-3.165 33.697-12.56 48.136-6.277 8.367-15.156 15.461-25.609 17.504-7.814 1.04-14.365.074-20.753-4.75-5.552-5.68-7.801-11.429-8-19.312.149-10.234 3.465-17.733 10.566-25.09 5.08-4.344 10.815-7.351 16.746-10.348l1.801-.924q5.07-2.597 10.199-5.076c.417-3.374.417-3.374 0-7-2.832-2.926-5.771-3.26-9.687-3.5-10.742.398-17.989 7.336-25.313 14.5l-2.535 2.418c-5.145 5.002-9.763 10.25-14.242 15.852-2.916 3.582-6.002 6.99-9.114 10.402a282 282 0 0 0-5.484 6.265c-8.133 9.256-16.108 16.658-26.625 23.063 2.53 1.687 4.48 2.656 7.281 3.7 28.77 10.942 28.77 10.942 35.84 24.44 6.744 16.908.046 34.979-4.746 51.548q-.919 3.21-1.835 6.421-.82 2.87-1.648 5.737c-1.132 4.002-2.044 7.488-2.08 11.654l-.042 2.281c.266 2.568.79 4.075 2.23 6.219 4.367 2.887 8.963 2.775 14 2 8.46-3.028 15.3-8.136 22-14l2.352-2.02c10.225-8.976 20.024-18.552 28.464-29.238 1.932-2.425 3.926-4.777 5.958-7.117 7.915-9.153 15.064-18.88 22.226-28.625l1.777-2.415c6.196-8.444 12.262-16.951 17.978-25.729C2841.57 499.43 2841.57 499.43 2847 498l2 1c-.277 6.357-3.694 10.367-7.312 15.313l-3.872 5.398-1.96 2.71a485 485 0 0 0-4.891 6.93c-7.364 10.613-15.148 20.879-23.025 31.114a768 768 0 0 0-5.428 7.191c-5.926 7.91-12.059 15.395-18.875 22.555-2.15 2.274-4.19 4.58-6.2 6.976-16.874 19.35-38.278 32.101-64.027 34.09-16.556.466-32.103-3.712-44.847-14.59-10.062-9.796-15.574-20.476-16.063-34.687.7-18.282 11.414-34.945 19.48-50.911 2.667-5.46 3.862-11.026 4.02-17.089l-1-2-1.793.621-2.394.817-2.356.808c-4.69 1.44-9.05 1.935-13.957 2.004l-3.344.078c-4.47-.465-7.024-2.196-10.156-5.328-.56-5.262-.56-5.262 1.375-7.812 5.018-3.667 11.677-2.484 17.625-2.188q3.57.685 7.125 1.438c6.784 1.062 10.462-.442 16.07-4.25A151 151 0 0 0 2696 487l2.527-2.41c5.15-5.008 9.776-10.262 14.258-15.871 2.869-3.521 5.922-6.851 8.985-10.203 2.236-2.523 4.327-5.122 6.418-7.766 14.862-18.26 37.48-39.73 62.812-27.75"/><path fill="#CC03FE" d="M1764 238c6.15 6.15 8.563 16.955 11.535 25.05 1.237 3.365 2.563 6.688 3.902 10.012 2.388 6.184 4.365 12.479 6.313 18.813l.927 2.992c1.22 4.036 2.395 7.948 2.901 12.14.227 3.169.227 3.169 2.422 5.993.379 2.191.379 2.191.563 4.563.252 3.344.252 3.344 1.437 6.437.822 4.825 1.167 9.183-1.55 13.413-2.153 2.3-4.39 4.39-6.763 6.462q-2.343 2.145-4.675 4.305l-2.11 1.866c-2.085 2.142-3.394 4.386-4.902 6.954a263 263 0 0 1-5 4l-2.187 2.75L1765 366h-2l-.723 1.777c-1.552 2.702-3.217 3.92-5.715 5.786-6.73 5.332-12.655 11.394-18.66 17.521l-2.351 2.393-2.073 2.127c-2.037 1.97-4.106 3.823-6.249 5.671-4.339 3.768-8.4 7.77-12.448 11.846l-2.252 2.257q-3.517 3.526-7.029 7.06l-4.805 4.818q-5.85 5.868-11.695 11.744a845 845 0 0 1-3.37-2.832l-1.896-1.593c-8.48-7.701-12.134-20.508-12.957-31.576-1.309-27.653 5.008-52.66 18.13-76.973 1.15-2.132 2.275-4.276 3.402-6.42 10.59-19.871 24.213-37.306 39.691-53.606l1.532-1.619c7.914-8.304 16.327-15.468 25.468-22.381a780 780 0 0 0 5-4"/><path fill="#9967FE" d="m1798 436 2 1q-.796 6.08-1.6 12.158l-.54 4.12c-3.078 23.525-3.078 23.525-5.797 33.222-1.293 4.699-2.566 9.397-3.75 14.125l-.7 2.79c-.673 2.545-.673 2.545-.809 5.054-.804 2.531-.804 2.531-3.155 4.18l-3.133 1.437-3.493 1.621q-1.886.837-3.773 1.668l-3.847 1.736c-27.414 12.24-55.217 18.34-85.216 18.202l-2.368-.004c-12.147-.035-23.922-.671-35.819-3.309l-3.684-.797c-4.615-1.086-8.937-2.378-13.316-4.203l2.25-1.687c2.69-2.262 4.596-4.553 6.75-7.313a283 283 0 0 1 5-5l2.188-2.25c3.391-3.316 6.924-6.456 10.46-9.617a141 141 0 0 0 4.977-4.758c1.966-1.966 3.96-3.766 6.067-5.575 4.029-3.512 7.844-7.191 11.617-10.976l1.976-1.973a3217 3217 0 0 0 4.081-4.087q3.132-3.137 6.273-6.266l3.982-3.986 1.897-1.891c3.119-3.023 3.119-3.023 5.482-6.621l1.838.409c22.1 4.7 46.994 3.501 67.209-7.413 2.246-1.146 4.535-2.034 6.89-2.933 7.21-2.825 13.71-6.665 20.063-11.063"/><path fill="#CC05FE" d="M1721 169c3.14 2.372 5.6 4.474 7.688 7.813 1.914 3.003 3.844 5.988 5.847 8.933l1.355 1.999q1.338 1.971 2.683 3.938c1.834 2.723 3.354 5.126 4.536 8.208L1744 202l3 1c.713 1.595 1.413 3.196 2.047 4.824 2.35 5.363 5.712 10.314 8.953 15.176l-3.34 1.766c-16.246 8.723-30.896 18.976-44.66 31.234l-1.574 1.387c-20.953 18.51-37.643 41.257-49.426 66.613h-1c-.34-13.534-.63-27.068-.857-40.605a2127 2127 0 0 0-.395-18.855c-.156-6.069-.268-12.137-.35-18.207a495 495 0 0 0-.164-6.936c-.542-18.109-.542-18.109 2.684-23.752 2.249-2.282 4.383-3.94 7.082-5.645a149 149 0 0 0 3.75-3.375q2.123-1.815 4.25-3.625l2.758-2.422c13.733-11.972 28.661-22.174 44.242-31.578"/><path fill="#9967FE" d="M1781 522c-1.248 8.493-4.004 16.466-8.016 24.043-1.053 2.093-1.896 4.207-2.734 6.394-4.424 11.277-9.868 22.15-15.723 32.743-1.337 2.47-2.54 4.958-3.715 7.508-2.284 4.175-2.284 4.175-5.812 5.312-2.655-.313-2.655-.313-5.726-1.115l-3.515-.893-3.814-1.015q-1.987-.513-3.976-1.02a1783 1783 0 0 1-8.45-2.188c-6.607-1.725-13.227-3.399-19.847-5.074l-4.388-1.111c-33.717-8.548-68.486-16.342-103.284-18.584l2.169-2.1c2.403-2.402 4.573-4.951 6.723-7.583 16.733-20.291 16.733-20.291 25.53-21.97 6.692.426 12.404 2.855 18.486 5.508 11.232 4.16 24.255 3.513 36.092 3.457l2.45-.005c32.195-.122 64.115-6.358 92.987-21.057C1779 522 1779 522 1781 522"/><path fill="#0C0D0D" d="M1484 999v7c-3.27 1.117-6.341 2.063-9.75 2.688L1471 1010c-2.025 5.2-2.284 9.972-2.243 15.502l-.006 2.486c-.003 2.693.007 5.386.019 8.078v5.644q.003 5.903.024 11.804c.017 5.036.021 10.072.02 15.108q.001 5.823.013 11.646.004 2.785.006 5.57.004 3.894.022 7.79l-.002 2.309c.026 4.209.446 7.86 1.147 12.063l16 3v7c-1.654 1.654-3.596 1.127-5.871 1.13l-3.145.009-3.421-.006-3.487.003q-3.656 0-7.313-.006c-3.747-.005-7.493 0-11.24.007q-3.543 0-7.085-.004l-3.422.006-3.145-.01-2.783-.002C1433 1119 1433 1119 1432 1118q.43-3.51 1-7l2.773-.445 3.602-.68 3.586-.633c3.238-.92 3.238-.92 4.203-3.763 1.006-4.188 1.188-8.086 1.25-12.377l.054-2.246c.062-2.743.109-5.487.157-8.231L1449 1064h-61l.438 19.813.13 6.245.116 4.899.05 2.57.06 2.46.048 2.134c.103 2.106.103 2.106 1.158 4.879a75 75 0 0 0 7.563 2.188l2.154.537c1.758.436 3.52.857 5.283 1.275q.062 3.5 0 7c-1.654 1.654-3.596 1.127-5.871 1.13l-3.145.009-3.421-.006-3.487.003q-3.656 0-7.313-.006c-3.747-.005-7.493 0-11.24.007q-3.543 0-7.085-.004l-3.422.006-3.145-.01-2.783-.002C1352 1119 1352 1119 1351 1118c-.04-2-.043-4 0-6 6-2 6-2 8.367-2.695l2.446-.743 2.332-.683L1366 1107c1.664-4.992 1.394-10.206 1.563-15.437l.126-3.865a981 981 0 0 0-.127-64.323l-.118-3.43c-.003-5.14-.003-5.14-1.444-9.945a110 110 0 0 0-7-1.562c-6.906-1.344-6.906-1.344-8-2.438-.125-3-.125-3 0-6 1-1 1-1 3.056-1.12l2.74.006h3.093l3.365.016 3.426.005c3.627.005 7.255.018 10.882.03q3.679.008 7.358.014 9.04.017 18.08.049v7c-3.256 1.112-6.482 2.126-9.812 3l-3.188 1c-1.69 3.381-1.245 7.222-1.316 10.945-.02.785-.038 1.569-.057 2.377-.068 2.934-.128 5.869-.19 8.803L1388 1052h61l-.437-17.562-.131-5.503-.116-4.376-.05-2.247A99.5 99.5 0 0 0 1447 1009l-2.809-.402-3.629-.535-3.62-.528C1434 1007 1434 1007 1433 1006c-.125-3-.125-3 0-6 1-1 1-1 3.366-1.098l3.154.035 3.512.026 3.78.037c9.803.06 19.538-.07 29.32-.732 5.675-.365 5.675-.365 7.868.732"/><path fill="#0C0C0C" d="m2306.624 998.839 2.1-.015q3.46-.021 6.92-.027l4.82-.017q5.07-.015 10.141-.02a2399 2399 0 0 0 12.907-.058c3.327-.019 6.653-.024 9.98-.026a735 735 0 0 0 4.75-.024c17.752-.137 33.285 3.2 46.504 15.868 10.984 12.088 14.43 25.66 14.504 41.542l.062 3.24c.077 15.843-4.808 29.771-15.729 41.394-11.15 11.17-26.4 18.69-42.312 19.431l-2.81.002-3.219.01-3.437-.006-3.588.003q-3.755 0-7.509-.006-5.698-.005-11.396.007-3.66 0-7.32-.004l-3.4.006c-7.244-.021-14.384-.427-21.592-1.139v-8l3.21-.586 4.165-.789 2.117-.383c4.18-.743 4.18-.743 7.508-3.242 1.26-4.324 1.148-8.717 1.145-13.183l.01-2.456q.013-4.007.013-8.013l.01-5.586q.009-5.85.007-11.698c0-4.991.014-9.982.031-14.974q.015-5.766.013-11.532 0-2.76.013-5.52c.01-2.575.007-5.15 0-7.725.007-.756.012-1.512.018-2.291-.026-4.375-.508-7.997-2.26-12.022-4.088-2.477-9.341-3.046-14-4q-.061-3.5 0-7c1.882-1.882 5.12-1.148 7.624-1.161M2336 1009c-1.59 3.179-1.147 6.611-1.145 10.102l-.01 2.539q-.013 4.17-.013 8.34l-.01 5.792a7486 7486 0 0 0-.007 12.164c0 5.187-.014 10.374-.031 15.562q-.015 5.987-.013 11.975 0 2.868-.013 5.735c-.01 2.68-.007 5.361 0 8.042-.007.785-.012 1.57-.018 2.38.028 8.076.028 8.076 3.776 14.892l1.734.852 1.703.898c10.069 3.574 23.338 3.155 33.047-1.273 11.439-6.07 17.666-15.017 21.715-27.14 4.218-16.132 3.072-34.083-4.715-48.86-1.791-2.885-3.76-5.451-6-8l-1.586-1.867c-9.193-10.056-22.087-12.603-35.191-13.348-6.714-.176-6.714-.176-13.223 1.215M462.624 998.839l2.1-.015q3.46-.021 6.92-.027l4.82-.017q5.07-.015 10.141-.02a2399 2399 0 0 0 12.907-.058c3.327-.019 6.653-.024 9.98-.026a735 735 0 0 0 4.75-.024c17.752-.137 33.285 3.2 46.504 15.868 10.984 12.088 14.43 25.66 14.504 41.542l.062 3.24c.077 15.843-4.808 29.771-15.729 41.394-11.15 11.17-26.4 18.69-42.312 19.431l-2.81.002-3.219.01-3.437-.006-3.588.003q-3.755 0-7.509-.006-5.698-.005-11.396.007-3.66 0-7.32-.004l-3.4.006c-7.244-.021-14.384-.427-21.592-1.139v-8l3.21-.586 4.165-.789 2.117-.383c4.18-.743 4.18-.743 7.508-3.242 1.26-4.324 1.148-8.717 1.145-13.183l.01-2.456q.013-4.007.013-8.013l.01-5.586q.009-5.85.007-11.698c0-4.991.014-9.982.031-14.974q.015-5.766.013-11.532 0-2.76.013-5.52c.01-2.575.007-5.15 0-7.725.007-.756.012-1.512.018-2.291-.026-4.375-.508-7.997-2.26-12.022-4.088-2.477-9.341-3.046-14-4q-.062-3.5 0-7c1.882-1.882 5.12-1.148 7.624-1.161M492 1009c-1.59 3.179-1.147 6.611-1.145 10.102l-.01 2.539q-.013 4.17-.013 8.34l-.01 5.792a7486 7486 0 0 0-.007 12.164c0 5.187-.014 10.374-.031 15.562q-.015 5.987-.013 11.975 0 2.868-.013 5.735c-.01 2.68-.007 5.361 0 8.042-.007.785-.012 1.57-.018 2.38.028 8.076.028 8.076 3.776 14.892l1.734.852 1.703.898c10.069 3.574 23.338 3.155 33.047-1.273 11.439-6.07 17.666-15.017 21.715-27.14 4.218-16.132 3.072-34.083-4.715-48.86-1.791-2.885-3.76-5.451-6-8l-1.586-1.867c-9.193-10.056-22.087-12.603-35.191-13.348-6.714-.176-6.714-.176-13.223 1.215"/><path fill="#0E0E0E" d="M2606.938 1006.125c12.87 9.633 19.875 22.295 23.062 37.875.42 4.26.478 8.472.438 12.75l-.026 3.46c-.346 17.354-5.67 31.677-17.787 44.407-14.897 13.523-31.214 17.492-50.96 16.797-14.865-.879-28.311-6.814-38.567-17.777-12.327-15.494-16.613-34.08-15.098-53.637 1.975-14.843 8.496-29.342 20.313-38.863 22.649-16.527 54.426-21.14 78.624-5.012M2539 1019c-9.946 16.318-11.773 33.3-8 52 3.337 13.615 10.102 25.778 21.813 33.75 9.784 5.658 21.032 7.094 32.09 4.594 10.718-3.832 15.844-10.829 20.652-20.746 6.658-16.574 5.643-36.212-.352-52.809-1.966-4.559-4.432-8.679-7.203-12.789l-1.75-2.687c-8.526-8.764-19.165-13.323-31.375-13.813-10.455.44-19.207 4.338-25.875 12.5M1860.938 1006.125c12.87 9.633 19.875 22.295 23.062 37.875.42 4.26.478 8.472.438 12.75l-.026 3.46c-.346 17.354-5.67 31.677-17.787 44.407-14.897 13.523-31.214 17.492-50.96 16.797-14.865-.879-28.311-6.814-38.567-17.777-12.327-15.494-16.613-34.08-15.098-53.637 1.975-14.843 8.496-29.342 20.313-38.863 22.649-16.527 54.426-21.14 78.624-5.012M1793 1019c-9.946 16.318-11.773 33.3-8 52 3.337 13.615 10.102 25.778 21.813 33.75 9.784 5.658 21.032 7.094 32.09 4.594 10.718-3.832 15.844-10.829 20.652-20.746 6.658-16.574 5.643-36.212-.352-52.809-1.966-4.559-4.432-8.679-7.203-12.789l-1.75-2.687c-8.526-8.764-19.165-13.323-31.375-13.813-10.455.44-19.207 4.338-25.875 12.5M1600.938 1006.125c12.87 9.633 19.875 22.295 23.062 37.875.42 4.26.478 8.472.438 12.75l-.026 3.46c-.346 17.354-5.67 31.677-17.787 44.407-14.897 13.523-31.214 17.492-50.96 16.797-14.865-.879-28.311-6.814-38.567-17.777-12.327-15.494-16.613-34.08-15.098-53.637 1.975-14.843 8.496-29.342 20.313-38.863 22.649-16.527 54.426-21.14 78.624-5.012M1533 1019c-9.946 16.318-11.773 33.3-8 52 3.337 13.615 10.102 25.778 21.813 33.75 9.784 5.658 21.032 7.094 32.09 4.594 10.718-3.832 15.844-10.829 20.652-20.746 6.658-16.574 5.643-36.212-.352-52.809-1.966-4.559-4.432-8.679-7.203-12.789l-1.75-2.687c-8.526-8.764-19.165-13.323-31.375-13.813-10.455.44-19.207 4.338-25.875 12.5M734.563 996.625l2.102.01c12.441.062 25.43.397 37.335 4.365a6100 6100 0 0 1-1.227 12.653q-.21 2.151-.416 4.303-.298 3.095-.603 6.189l-.365 3.76C771 1031 771 1031 770 1034h-9l-.516-3.07-.734-4.055-.332-2.016c-.994-5.338-2.766-9.756-7.172-13.25-13.164-6.255-28.572-6.26-42.246-1.609-10.043 4.892-15.856 12.602-19.957 22.777-5.66 17.49-5.181 38.475 3.144 55.098A76 76 0 0 0 696 1092l1.828 2.516c6.835 8.455 16.925 14.447 27.758 16.273 12.341 1.417 12.341 1.417 23.414-2.789 3.47-7.841 3.047-19.093 1.297-27.297-1.052-2.84-1.052-2.84-3.531-4.012-2.999-.75-5.958-1.305-9.016-1.754-5.646-.833-5.646-.833-6.75-1.937l1-7h50v8l-1.934.621-2.504.816-2.496.81c-2.028.575-2.028.575-3.066 1.753a64 64 0 0 0-.316 4.191l-.127 2.616-.12 2.755-.13 2.674c-.245 5.26-.35 10.498-.307 15.764l4 1v7c-26.115 9.108-56.85 12.012-82.437-.187-15.065-8.13-22.46-19.792-27.563-35.813-1.404-5.952-1.221-12.042-1.25-18.125l-.062-3.227c-.08-16.395 5.468-30.529 16.87-42.433 14.982-13.591 34.337-17.811 54.005-17.59"/><path fill="#0F0F10" d="M2160 999q10.44-.037 20.88-.055 3.555-.008 7.11-.02c3.398-.013 6.796-.018 10.194-.023l3.232-.015h2.972l2.632-.007c1.98.12 1.98.12 2.98 1.12a177 177 0 0 1-1 7l-2.59.586-3.347.789-3.34.773-2.723.852c-1.38 2.76-1.142 5.005-1.161 8.095l-.03 3.887-.012 4.229-.017 4.344q-.015 4.567-.02 9.135c-.006 3.87-.03 7.741-.058 11.612-.019 2.998-.024 5.996-.026 8.993a593 593 0 0 1-.024 4.274c-.106 12.272.494 25.038 9.348 34.431 9.705 7.675 20.378 9.104 32.418 7.723 5.533-1 10.493-2.763 14.582-6.723 7.796-11.547 8.306-23.933 8.23-37.46q0-2.045 0-4.088-.003-4.248-.024-8.496-.023-5.433-.02-10.864-.001-4.205-.013-8.41a3927 3927 0 0 1-.008-5.945l-.02-3.653-.011-3.203c-.08-3.259-.08-3.259-1.134-7.881l-16-3v-8h46v7l-1.828.55c-6.11 1.78-6.11 1.78-11.172 5.45-1.044 3.166-1.167 6.19-1.25 9.509l-.091 3.351-.089 3.62-.222 7.659q-.172 6.009-.322 12.018c-1.214 47.622-1.214 47.622-15.026 61.843-14.379 12-31.152 12.068-49 11-4.63-.62-8.786-1.982-13-4l-2.262-1.062c-8.597-4.717-14.013-12.08-17.047-21.262-1.594-6.173-1.954-12.21-2.191-18.551l-.13-3.11c-.264-6.988-.406-13.97-.48-20.963-.046-4.356-.106-8.711-.165-13.067a990 990 0 0 1-.053-6.592 1034 1034 0 0 0-.098-9.381l.006-2.88c-.048-5.21-.048-5.21-2.455-9.706-2.488-1.67-4.423-2.21-7.375-2.676-.892-.15-1.784-.3-2.703-.453L2160 1007z"/><path fill="#0D0E0E" d="M1020 1000h15l1.155 3.328c6.745 19.43 13.503 38.855 20.412 58.228a2108 2108 0 0 1 1.701 4.794c3.086 8.723 6.345 17.353 9.892 25.9l.978 2.383c3.116 7.908 3.116 7.908 9.046 13.539l2.254.578 2.367.66 2.195.59c1.674.649 3.345 1.306 5 2 .043 2 .04 4 0 6-1.628 1.628-3.441 1.127-5.687 1.13l-3.024.009-3.289-.006-3.352.003q-3.515 0-7.03-.006c-3.602-.005-7.204 0-10.805.007q-3.407 0-6.813-.004l-3.29.006-3.023-.01-2.675-.002C1039 1119 1039 1119 1038 1118c-.04-2-.043-4 0-6 3.924-1.665 7.891-2.872 12-4-1.436-7.225-3.595-14.003-6.062-20.937l-1.104-3.15c-1.711-5.042-1.711-5.042-3.834-9.913h-33l-5 14.75-1.582 4.636-1.23 3.66-1.27 3.746c-1.101 3.293-1.101 3.293-.918 7.208l3.027.621 3.91.816 3.903.81c3.16.753 3.16.753 4.16 1.753.125 3 .125 3 0 6-1 1-1 1-2.905 1.12l-2.523-.006h-2.851l-3.1-.016-3.157-.005c-3.342-.005-6.684-.018-10.027-.03q-3.39-.008-6.779-.014-8.329-.017-16.658-.049v-8l2.45-.48c8.483-1.725 8.483-1.725 14.55-7.52 6.066-10.715 10.153-22.333 14.5-33.812l2.375-6.232c6.637-17.465 13.018-35.02 19.224-52.644A269 269 0 0 1 1020 1000m3 26c-3.408 7.766-6.403 15.661-9.312 23.625l-1.096 2.983-1.018 2.806-.919 2.53c-.756 2.014-.756 2.014-.655 4.056h26l-12-36z"/><path fill="#0D0D0E" d="m1247.507 998.89 3.383.025 3.826.022 4.179.043 2.124.022q5.585.056 11.168.13c3.818.049 7.636.076 11.454.097 2.956.02 5.912.058 8.868.1q2.107.027 4.215.032c13.11.048 23.611 1.92 33.21 11.256 7.764 8.953 7.685 18.91 7.245 30.128-.683 8.602-5.77 16.229-12.027 21.942-8.847 7.036-17.627 9.5-28.714 9.625l-2.616.088c-6.3.064-6.3.064-8.9-2.248-1.086-2.536-1.15-4.42-.922-7.152 3.343-1.114 5.618-.966 9.125-.813 7.407.05 12.752-1.311 18.25-6.375 5.042-8.726 6.209-18.051 3.898-27.914-2.41-7.27-5.488-11.553-12.335-15.148-4.975-2.404-9.086-2.887-14.625-2.875l-3.512-.008c-2.706-.186-2.706-.186-3.801 1.133a235 235 0 0 0-.145 8.695l-.01 2.764q-.013 4.548-.013 9.096l-.01 6.296q-.009 6.61-.007 13.22c0 5.656-.014 11.311-.031 16.966q-.015 6.507-.013 13.012 0 3.127-.013 6.256c-.01 2.914-.007 5.827 0 8.741-.007.867-.012 1.734-.018 2.626.02 4.96.02 4.96 2.26 9.328 2.554.678 4.967 1.2 7.563 1.625 7.335 1.273 7.335 1.273 8.437 2.375.125 3 .125 3 0 6-1 1-1 1-3.17 1.12l-2.9-.006h-3.276l-3.564-.016-3.628-.005c-3.841-.005-7.683-.018-11.524-.03q-3.897-.009-7.792-.014A12264 12264 0 0 1 1244 1119v-7l3.063-.875 1.917-.559c1.953-.547 3.924-1.027 5.895-1.504 1.031-.35 2.063-.7 3.125-1.062 1.553-4.658 1.395-9.364 1.563-14.25l.126-3.677c.438-14.27.422-28.547.436-42.823l.008-3.715q.008-5.322 0-10.644l.006-3.227c-.019-5.964-.201-11.767-1.139-17.664-3.325-3.222-7.674-3.733-12.11-4.57-1.89-.43-1.89-.43-2.89-1.43-.125-3-.125-3 0-6 1-1 1-1 3.507-1.11M2038 997q2.25.216 4.5.438l2.531.246c2.058.219 4.11.498 6.152.825 6.91.861 13.903.656 20.856.659l4.708.01q4.924.009 9.85.007c4.168 0 8.336.014 12.505.031q4.862.015 9.724.013 2.303 0 4.604.013c8.685.04 17.03-.367 25.611-1.813 2.707-.392 5.23-.509 7.959-.429.944 3.055.997 5.27.477 8.414l-.407 2.559-.445 2.652c-.999 6.114-1.859 12.18-2.366 18.357C2144 1031 2144 1031 2143 1033h-8l-.332-1.836c-.869-4.592-1.838-9.148-3.043-13.664l-.648-2.469c-1.277-2.656-2.248-2.973-4.977-4.031-2.901-.365-2.901-.365-6.078-.414l-3.516-.117-3.656-.094-3.703-.117q-4.524-.141-9.047-.258.126 17.864.288 35.727.076 8.295.134 16.59.056 8.003.136 16.008.028 3.054.045 6.108c.017 2.852.046 5.703.078 8.554l.007 2.552c.06 4.214.21 7.685 2.312 11.461 3.411 1.876 6.932 2.448 10.75 3.063 5.145.832 5.145.832 6.25 1.937l-1 7h-60v-8l3.648-.586 4.727-.789 2.406-.383 2.305-.39 2.126-.35c2.023-.41 2.023-.41 3.788-2.502 1.095-3.178 1.153-6.235 1.205-9.578l.06-3.406.051-3.696.063-3.87q.066-4.083.124-8.166c.057-4.053.123-8.106.19-12.159.285-18.043.363-36.08.307-54.125l-2.425-.062-3.24-.083-3.377-.084a719 719 0 0 1-6.963-.221c-6.42-.143-6.42-.143-12.093 2.524-2.122 3.264-3.695 6.439-5.152 10.051l-1.516 3.695A135 135 0 0 0 2043 1033c-6.75.125-6.75.125-9-1a540 540 0 0 1 2-22.562l.251-2.344c.385-3.44.857-6.75 1.749-10.094M1641 997q2.25.216 4.5.438l2.531.246c2.058.219 4.11.498 6.152.825 6.91.861 13.903.656 20.856.659l4.708.01q4.924.009 9.85.007c4.168 0 8.336.014 12.505.031q4.862.015 9.724.013 2.303 0 4.604.013c8.685.04 17.03-.367 25.611-1.813 2.707-.392 5.23-.509 7.959-.429.944 3.055.997 5.27.477 8.414l-.407 2.559-.445 2.652c-.999 6.114-1.859 12.18-2.366 18.357C1747 1031 1747 1031 1746 1033h-8l-.332-1.836c-.869-4.592-1.838-9.148-3.043-13.664l-.648-2.469c-1.277-2.656-2.248-2.973-4.977-4.031-2.901-.365-2.901-.365-6.078-.414l-3.516-.117-3.656-.094-3.703-.117q-4.524-.141-9.047-.258.126 17.864.288 35.727.076 8.295.134 16.59.056 8.003.136 16.008.029 3.054.045 6.108c.017 2.852.046 5.703.078 8.554l.007 2.552c.06 4.214.21 7.685 2.312 11.461 3.411 1.876 6.932 2.448 10.75 3.063 5.145.832 5.145.832 6.25 1.937l-1 7h-60v-8l3.648-.586 4.727-.789 2.406-.383 2.305-.39 2.126-.35c2.023-.41 2.023-.41 3.788-2.502 1.095-3.178 1.153-6.235 1.205-9.578l.06-3.406.051-3.696.063-3.87q.066-4.083.124-8.166c.057-4.053.123-8.106.19-12.159.285-18.043.363-36.08.307-54.125l-2.425-.062-3.24-.083-3.377-.084a719 719 0 0 1-6.963-.221c-6.42-.143-6.42-.143-12.093 2.524-2.122 3.264-3.695 6.439-5.152 10.051l-1.516 3.695A135 135 0 0 0 1646 1033c-6.75.125-6.75.125-9-1a540 540 0 0 1 2-22.562l.251-2.344c.385-3.44.857-6.75 1.749-10.094M865 997q2.25.216 4.5.438l2.531.246c2.058.219 4.11.498 6.152.825 6.91.861 13.903.656 20.856.659l4.708.01q4.924.009 9.85.007c4.168 0 8.336.014 12.505.031q4.862.015 9.724.013 2.303 0 4.604.013c8.685.04 17.03-.367 25.611-1.813 2.707-.392 5.23-.509 7.959-.429.944 3.055.997 5.27.477 8.414l-.407 2.559-.445 2.652c-.999 6.114-1.859 12.18-2.366 18.357C971 1031 971 1031 970 1033h-8l-.332-1.836c-.869-4.592-1.838-9.148-3.043-13.664l-.648-2.469c-1.277-2.656-2.248-2.973-4.977-4.031-2.901-.365-2.901-.365-6.078-.414l-3.516-.117-3.656-.094-3.703-.117q-4.523-.141-9.047-.258.126 17.864.288 35.727.076 8.295.134 16.59.056 8.003.136 16.008.029 3.054.045 6.108c.017 2.852.046 5.703.078 8.554l.007 2.552c.06 4.214.21 7.685 2.312 11.461 3.411 1.876 6.932 2.448 10.75 3.063 5.145.832 5.145.832 6.25 1.937l-1 7h-60v-8l3.648-.586 4.727-.789 2.406-.383 2.305-.39 2.126-.35c2.023-.41 2.023-.41 3.788-2.502 1.095-3.178 1.153-6.235 1.205-9.578l.06-3.406.051-3.696.063-3.87q.066-4.083.124-8.166.088-6.08.19-12.159c.285-18.043.363-36.08.307-54.125l-2.425-.062-3.24-.083-3.377-.084a719 719 0 0 1-6.963-.221c-6.42-.143-6.42-.143-12.093 2.524-2.122 3.264-3.695 6.439-5.152 10.051l-1.516 3.695A135 135 0 0 0 870 1033c-6.75.125-6.75.125-9-1a540 540 0 0 1 2-22.562l.251-2.344c.385-3.44.857-6.75 1.749-10.094"/><path fill="#0F0F0F" d="m1991.188 996.688 3.328.027c21.528.329 21.528.329 24.484 3.285-.162 6.907-1.176 13.83-2 20.688l-.251 2.142c-.63 5.051-.63 5.051-1.749 6.17q-3.5.061-7 0l-.734-3.105-1.016-4.082-.477-2.042c-1.13-4.457-2.597-7.445-5.773-10.771-5.872-3.355-12.821-3.566-19.25-1.937-4.735 1.646-7.173 3.508-9.75 7.937-2.179 5.932-2.35 10.735-.312 16.7 4.282 7.506 9.998 11.281 17.5 15.3a3822 3822 0 0 1 5.648 3.14l2.714 1.499c9.778 5.432 20.6 11.577 24.817 22.556 2.303 10.207 1.806 20.102-3.539 29.22-6.794 9.61-15.354 14.97-26.828 17.585-3.733.304-7.444.333-11.187.313l-3.096-.009c-7.307-.101-13.816-.754-20.717-3.304l-2.7-.828c-2.3-1.172-2.3-1.172-3.374-3.133-2.544-10.012-4.339-19.674-3.926-30.039 2.709-1.354 5.01-1.065 8-1l.918 2.344c5.794 14.562 5.794 14.562 17.832 23.906 8.106 1.87 14.58 2.433 22.25-1.25 4.024-2.568 5.525-4.518 7-9 .697-6.216.647-11.718-3-17-5.651-6.679-13.503-11.11-20.91-15.6-11.198-6.826-22.263-14.227-26.723-27.248-1.913-11.212-.453-20.903 5.758-30.402 9.842-9.414 20.783-12.281 34.063-12.062"/><path fill="#0D0D0E" d="m1099.688 998.87 3.023-.009 3.289.006 3.352-.003q3.515 0 7.03.006c3.602.005 7.204 0 10.805-.007q3.407 0 6.813.004l3.29-.006 3.023.01 2.675.002C1145 999 1145 999 1146 1000a177 177 0 0 1-1 7l-13 3c-.93 4.65-1.148 8.897-1.145 13.598l-.01 2.589q-.013 4.222-.013 8.446l-.01 5.876q-.009 6.15-.007 12.301c0 5.26-.014 10.52-.031 15.781q-.015 6.064-.013 12.127 0 2.91-.013 5.82c-.01 2.708-.007 5.415 0 8.123-.007.804-.012 1.608-.018 2.437.022 3.835.081 5.634 2.26 8.902 5.154 2.053 11.417 1.186 16.9 1.185 2.093.002 4.186.02 6.28.04q2.004.005 4.007.005l3.668.013c3.019-.233 4.654-.585 7.145-2.243 5.916-7.447 9.9-16.462 14-25 5.75.875 5.75.875 8 2-.456 7.081-1.755 13.488-3.875 20.25l-.777 2.602c-1.411 4.608-2.908 8.96-5.348 13.148-3.251 1.626-6.825 1.13-10.397 1.114h-2.631c-2.879 0-5.757-.009-8.636-.016l-5.978-.005q-7.875-.006-15.752-.024-8.034-.014-16.067-.02-15.77-.016-31.539-.049c-1.133-5.774-1.133-5.774.063-7.809 2.615-1.608 4.9-1.87 7.937-2.254 3.858-.496 5.717-.748 9-2.937 1.033-5.476 1.149-10.889 1.145-16.448l.01-2.432q.013-3.942.013-7.882l.01-5.512q.009-5.759.007-11.516c0-4.916.014-9.832.031-14.748q.015-5.685.013-11.368 0-2.72.013-5.439c.01-2.532.007-5.063 0-7.595.007-.746.012-1.491.018-2.26-.024-4.008-.26-7.276-2.26-10.8-3.044-1.224-3.044-1.224-6.562-1.75-6.392-1.204-6.392-1.204-7.438-2.25-.125-3-.125-3 0-6 1.628-1.628 3.441-1.127 5.688-1.13"/><path fill="#9A6BFD" d="m1799 364 .152 1.988c.232 2.963.477 5.925.723 8.887l.238 3.129.254 2.988.222 2.761c.227 2.442.227 2.442 2.411 4.247.243 2.139.243 2.139.23 4.754l-.005 2.838-.037 2.97-.002 2.983c-.046 7.315-.046 7.315-1.186 8.455l.21 3.281c.24 4.373.333 8.564-1.21 12.719-3.836 3.757-7.992 5.836-12.856 8.022-2.093.955-4.11 1.994-6.136 3.083-22.826 12.161-45.24 17.59-71.008 13.895 1.564-3.323 3.214-5.562 6-8h2l.813-1.937C1721 439 1721 439 1724 438l.79-1.69c1.808-3.452 4.699-5.71 7.562-8.283 7.942-7.294 15.571-14.876 23.171-22.523l3.642-3.658q7.539-7.58 15.064-15.171 4.662-4.7 9.334-9.39 1.768-1.775 3.529-3.558 2.437-2.463 4.886-4.916l2.801-2.824C1797 364 1797 364 1799 364"/><path fill="#00C9FD" d="M1183 508h1c.386 13.308.712 26.615.961 39.926.118 6.181.256 12.36.442 18.54.178 5.964.302 11.928.388 17.895q.064 3.413.187 6.824c.623 17.842.623 17.842-3.359 22.748-2.856 1.862-5.38 3.038-8.619 4.067l-3.637 1.559c-14.493 4.175-14.493 4.175-21.113.754-4.308-3.066-7.243-6.418-9.25-11.313-3.747-32.63 21.606-68.926 38.688-94.75l1.279-1.935c.982-1.458 2.003-2.89 3.033-4.315"/><path fill="#09C9FC" d="M1077 563h2l1.038 2q2.354 4.532 4.712 9.063l1.633 3.146c2.773 5.327 5.587 10.606 8.617 15.791l2-1 .777 1.8c7.316 15.84 19.57 26.859 35.7 33.169 12.965 4.23 29.48 3.502 41.699-2.54a155 155 0 0 0 5.68-3.32L1183 620l2 1-1 76-3 1-2-2.625c-2.732-3.323-5.896-5.651-9.426-8.078L1168 686v-2l-1.562-.75L1164 682l-3.437-1.625c-3.754-2.125-5.248-4.818-7.325-8.504-1.83-2.765-4.49-4.057-7.238-5.871-1.76-2.021-3.338-4.14-4.937-6.29-2.484-3.263-5.1-6.394-7.75-9.523l-1.406-1.67c-1.954-2.304-3.93-4.54-6.067-6.677-1.734-1.734-3.168-3.472-4.59-5.465l-1.297-1.79C1119 633 1119 633 1119 631l-3-1c-1.5-1.89-1.5-1.89-3-4.25l-1.57-2.457L1110 621l-1.875-2.937C1107 616 1107 616 1107 614h-2c-1.523-2.105-1.523-2.105-3.375-5.187l-1.035-1.722A761 761 0 0 1 1097 601l-1.419-2.419C1077 566.795 1077 566.795 1077 563"/><path fill="#0C0C0D" d="m2442.688 998.87 3.023-.009 3.289.006 3.352-.003q3.515 0 7.03.006c3.602.005 7.204 0 10.805-.007q3.407 0 6.813.004l3.29-.006 3.023.01 2.675.002C2488 999 2488 999 2489 1000c.04 2 .043 4 0 6-4.672 1.43-9.131 2.404-14 3-.862 5.214-1.148 10.222-1.145 15.502l-.01 2.486q-.013 4.04-.013 8.078l-.01 5.644q-.009 5.903-.007 11.804c0 5.036-.014 10.072-.031 15.108a3879 3879 0 0 0-.013 11.646q0 2.785-.013 5.57c-.01 2.596-.007 5.193 0 7.79-.007.761-.012 1.524-.018 2.309.026 4.392.526 8.013 2.26 12.063 2.92 2.158 6.214 2.536 9.75 3.125l2.984.508 2.266.367c.8 3.287 1.097 4.71 0 8h-54v-7c6-2 6-2 8.367-2.66l2.445-.715 2.333-.648c2.028-.795 2.028-.795 2.463-2.798.64-3.558.54-7.137.537-10.74l.01-2.612q.013-4.273.013-8.546l.01-5.94q.009-6.225.007-12.448c0-5.32.014-10.64.031-15.96q.015-6.132.013-12.265 0-2.942.013-5.885c.01-2.74.007-5.482 0-8.222.007-.812.012-1.624.018-2.46.043-5.396.043-5.396-2.26-10.101-3.057-1.106-3.057-1.106-6.562-1.688-6.375-1.25-6.375-1.25-7.438-2.312-.125-3-.125-3 0-6 1.628-1.628 3.441-1.127 5.688-1.13M802.688 998.87l3.023-.009 3.289.006 3.352-.003q3.515 0 7.03.006c3.602.005 7.204 0 10.806-.007q3.405 0 6.812.004l3.29-.006 3.023.01 2.675.002C848 999 848 999 849 1000c.04 2 .043 4 0 6-4.672 1.43-9.131 2.404-14 3-.862 5.214-1.148 10.222-1.145 15.502l-.01 2.486q-.013 4.04-.013 8.078l-.01 5.644q-.009 5.903-.007 11.804c0 5.036-.014 10.072-.031 15.108a3879 3879 0 0 0-.013 11.646q0 2.785-.013 5.57c-.01 2.596-.007 5.193 0 7.79-.007.761-.012 1.524-.018 2.309.026 4.392.526 8.013 2.26 12.063 2.92 2.158 6.214 2.536 9.75 3.125l2.984.508L851 1111c.8 3.287 1.097 4.71 0 8h-54v-7c6-2 6-2 8.367-2.66l2.446-.715 2.332-.648c2.028-.795 2.028-.795 2.463-2.798.64-3.558.54-7.137.537-10.74l.01-2.612q.013-4.273.013-8.546l.01-5.94q.009-6.225.007-12.448c0-5.32.014-10.64.031-15.96q.015-6.132.013-12.265 0-2.942.013-5.885c.01-2.74.007-5.482 0-8.222.007-.812.012-1.624.018-2.46.043-5.396.043-5.396-2.26-10.101-3.057-1.106-3.057-1.106-6.562-1.688-6.375-1.25-6.375-1.25-7.438-2.312-.125-3-.125-3 0-6 1.628-1.628 3.441-1.127 5.688-1.13M599.688 998.87l3.023-.009 3.289.006 3.352-.003q3.515 0 7.03.006c3.602.005 7.204 0 10.806-.007q3.405 0 6.812.004l3.29-.006 3.023.01 2.675.002C645 999 645 999 646 1000c.04 2 .043 4 0 6-4.672 1.43-9.131 2.404-14 3-.862 5.214-1.148 10.222-1.145 15.502l-.01 2.486q-.013 4.04-.013 8.078l-.01 5.644q-.009 5.903-.007 11.804c0 5.036-.014 10.072-.031 15.108a3879 3879 0 0 0-.013 11.646q0 2.785-.013 5.57c-.01 2.596-.007 5.193 0 7.79-.007.761-.012 1.524-.018 2.309.026 4.392.526 8.013 2.26 12.063 2.92 2.158 6.214 2.536 9.75 3.125l2.984.508L648 1111c.8 3.287 1.097 4.71 0 8h-54v-7c6-2 6-2 8.367-2.66l2.446-.715 2.332-.648c2.028-.795 2.028-.795 2.463-2.798.64-3.558.54-7.137.537-10.74l.01-2.612q.013-4.273.013-8.546l.01-5.94q.009-6.225.007-12.448c0-5.32.014-10.64.031-15.96q.015-6.132.013-12.265 0-2.942.013-5.885c.01-2.74.007-5.482 0-8.222.007-.812.012-1.624.018-2.46.043-5.396.043-5.396-2.26-10.101-3.057-1.106-3.057-1.106-6.562-1.688-6.375-1.25-6.375-1.25-7.438-2.312-.125-3-.125-3 0-6 1.628-1.628 3.441-1.127 5.688-1.13"/><path fill="#CE0FFD" d="M1659 105c2.438.75 2.438.75 5 2a70 70 0 0 1 1 4q1.986 1.028 4 2c1.612 1.31 1.612 1.31 3.172 2.793l1.752 1.65 1.826 1.745q1.88 1.772 3.762 3.542l1.821 1.717c2.579 2.403 5.236 4.708 7.92 6.99 4.714 4.218 8.843 8.883 12.935 13.688l1.615 1.879c2.232 2.611 4.286 5.13 6.197 7.996l-2.13 1.063c-16.227 8.144-31.75 16.839-46.87 26.937l-3 2q-.034-15.424-.052-30.85-.007-7.16-.023-14.322-.016-6.906-.02-13.81-.003-2.641-.01-5.282-.01-3.686-.009-7.37l-.01-2.228c.01-5.024.01-5.024 1.124-6.138"/><path fill="#0598FB" d="M1208 525c3.32 1.107 4 1.905 6.168 4.531 3.85 4.535 7.942 8.763 12.145 12.969l2.166 2.203 2.072 2.078 1.864 1.877c1.493 1.557 1.493 1.557 3.585 1.342-1.97 4.093-4.423 7.707-7 11.438l-1.471 2.132c-5.985 8.605-12.053 17.05-19.529 24.43q-.231-12.1-.443-24.2-.098-5.618-.205-11.235-.104-5.418-.195-10.835-.036-2.07-.078-4.142-.056-2.891-.1-5.783l-.061-3.331C1207 526 1207 526 1208 525"/><path fill="#9866FE" d="M1561 595c12.265 2.916 24.315 6.397 36.375 10.063l5.309 1.603q5 1.51 9.999 3.026 7.155 2.168 14.317 4.308v2q-15.79.07-31.58.104-7.331.014-14.662.047-7.071.032-14.142.039-2.7.005-5.404.021c-2.516.015-5.033.017-7.55.016l-2.273.022c-5.16-.02-5.16-.02-7.389-2.249l1.56-1.529q3.477-3.417 6.94-6.846l2.457-2.406 2.324-2.305 2.158-2.126c1.78-1.644 1.78-1.644 1.561-3.788"/><path fill="#738AE6" d="m1132 154 2 1c-1.386 3.092-2.492 4.492-5 7h353l-5-5 1-2a564 564 0 0 1 4 3.375l2.25 1.898L1486 162v2c-4.499.715-8.805 1.122-13.359 1.107l-3.758-.004-4.088-.02q-2.187-.006-4.374-.01-5.996-.016-11.993-.041-6.471-.024-12.942-.04-11.207-.031-22.415-.071-16.205-.059-32.408-.105-26.291-.078-52.582-.168-25.537-.087-51.075-.166l-3.18-.01-15.797-.048Q1192.515 164.22 1127 164c0-5.305 1.536-6.19 5-10"/><path fill="#CC00FE" d="M1657 420h2l1.313 3.25c4.597 9.194 13.175 17.189 21.687 22.75l-22 22-2-1z"/><path fill="#C7C8D7" d="M1358 639a237654 237654 0 0 1 148.09-.11l3.142-.001q25.212-.015 50.423-.043 25.854-.028 51.708-.034 15.964-.004 31.927-.028 10.935-.015 21.87-.011 6.317.003 12.633-.011 5.776-.014 11.553-.004 2.096.001 4.191-.008c1.892-.008 3.783-.002 5.675.004l3.19-.002C1705 639 1705 639 1708 641h-348v2l-3-1z"/><path fill="#0F97F4" d="M1281 599c3.332 1.452 5.542 3.285 8.11 5.844l2.285 2.277 2.355 2.379 2.402 2.379 2.27 2.277 2.08 2.088C1302 618 1302 618 1302 620c-5.494 1.586-11.322 1.64-16.875.313-3.026-1.87-4.382-3.15-6.125-6.313-.648-5.392-.809-10.225 2-15"/><path fill="#F328FA" d="M1633 245h1l1 32c-3 0-3 0-4.534-1.193l-1.603-1.65-1.748-1.778-1.803-1.879-1.837-1.879A891 891 0 0 1 1619 264c4.245-6.656 8.797-13.051 14-19"/><path fill="#7DBCE6" d="M1209 596h1l.007 1.881q.089 22.647.229 45.293.07 10.95.11 21.903.034 9.544.103 19.088.037 5.055.049 10.11c.01 3.759.037 7.518.07 11.277l-.005 3.396.038 3.098.014 2.695c.458 2.688 1.297 3.574 3.385 5.259-2.437-.375-2.437-.375-5-1-1.211-2.423-1.143-3.992-1.172-6.7l-.038-3.004-.027-3.307-.04-3.474q-.061-5.71-.11-11.417l-.077-7.907q-.079-8.295-.149-16.592c-.053-6.396-.119-12.792-.189-19.188q-.099-9.224-.175-18.447-.035-3.928-.08-7.855-.059-5.484-.094-10.968l-.045-3.302-.013-3.012-.024-2.62C1207 599 1207 599 1209 596"/><path fill="#7BBAE4" d="M1183 508h1l1 103-3 1a20758 20758 0 0 1-.495-39.35q-.104-9.137-.229-18.272-.119-8.81-.214-17.623-.039-3.367-.088-6.733-.067-4.705-.11-9.41l-.05-2.83c-.005-.853-.01-1.707-.017-2.587l-.027-2.249C1181 511 1181 511 1183 508"/><path fill="#C9CDDC" d="M1107 186h192l1 2-3 4-2-1 2-3-190-1z"/><path fill="#C8AEF7" d="m1561 595 5 1c-5.04 6.101-10.332 11.332-16 17l77 1v2q-15.79.07-31.58.104-7.331.014-14.662.047-7.071.032-14.142.039-2.7.005-5.404.021c-2.516.015-5.033.017-7.55.016l-2.273.022c-5.16-.02-5.16-.02-7.389-2.249l1.56-1.529q3.477-3.417 6.94-6.846l2.457-2.406 2.324-2.305 2.158-2.126c1.78-1.644 1.78-1.644 1.561-3.788"/><path fill="#ABC0EA" d="M1317 634c5.347 4.464 10.318 9.18 15.23 14.117l2.397 2.396q3.89 3.893 7.775 7.792l5.418 5.422q6.383 6.389 12.76 12.781 7.268 7.283 14.54 14.561Q1390.065 706.03 1405 721l-1 2-83-83-2.227-2.102C1317 636 1317 636 1317 634"/><path fill="#7EBBE4" d="m1183 620 2 1-1 76-3 1-2-4h3l-.007-2.765q-.03-12.868-.045-25.737-.007-6.616-.023-13.234-.016-6.38-.02-12.76-.003-2.44-.01-4.879-.01-3.405-.009-6.81l-.006-3.923C1182 621 1182 621 1183 620"/><path fill="#31A8EB" d="M1208 525c3.35 1.117 3.793 1.747 5.688 4.563l1.324 1.94L1216 533c-3.875-1.875-3.875-1.875-5-3l-1 57-2 1q-.231-12.1-.443-24.2-.098-5.618-.205-11.235-.104-5.418-.195-10.835-.036-2.07-.078-4.142-.056-2.891-.1-5.783l-.061-3.331C1207 526 1207 526 1208 525"/><path fill="#7DB3DE" d="M1077 563h2l1.038 2q2.354 4.532 4.712 9.063l1.633 3.146c2.773 5.327 5.587 10.606 8.617 15.791l2-1q1.19 2.342 2.375 4.688l1.336 2.636c1.216 2.524 2.282 5.063 3.289 7.676l-2 2c-25-39.9-25-39.9-25-46"/><path fill="#D982E9" d="M1657 420h2c.919 2.756 1.122 4.36 1.114 7.196v2.547l-.016 2.737-.005 2.813c-.005 2.965-.018 5.93-.03 8.894q-.008 3.015-.014 6.03-.017 7.392-.049 14.783l2 1-3 2c-1.585-1.585-1.164-3.229-1.205-5.428l-.06-2.851-.051-3.1-.063-3.157q-.097-5.013-.184-10.026l-.13-6.78q-.162-8.328-.307-16.658"/><path fill="#C0C4D3" d="m1457 775 4 4c-4.383 2.506-7.43 3.36-12.464 3.249l-3.821-.062-4.082-.113q-2.106-.042-4.212-.08c-3.68-.07-7.358-.159-11.037-.252-3.76-.091-7.522-.165-11.282-.24-7.368-.15-14.735-.32-22.102-.502v-1l2.378-.025q11.08-.116 22.16-.263 5.698-.076 11.395-.134 5.494-.056 10.99-.136 2.1-.029 4.198-.045c1.956-.017 3.913-.047 5.869-.078l3.378-.04c2.789-.017 2.789-.017 4.632-2.279z"/><path fill="#6E88E6" d="m1163 122 2 1a105 105 0 0 1-4 5h-2l-.742 1.73c-4.03 7.272-11.977 12.947-18.258 18.27 0-3.544.61-4.103 2.875-6.687l1.617-1.887C1146 138 1146 138 1148 138v-2h2v-2h2v-2h2v-2h2v-2c1.531-1.508 1.531-1.508 3.5-3.125l1.969-1.633z"/><path fill="#C9CCDC" d="m1208 525 3 1-1 2c-.12 1.91-.177 3.822-.205 5.735l-.06 3.64-.051 3.945-.063 4.027q-.082 5.303-.153 10.604-.077 5.409-.161 10.819-.162 10.614-.307 21.23h-1q-.231-12.1-.443-24.2-.098-5.618-.205-11.235-.104-5.418-.195-10.835-.036-2.07-.078-4.142-.056-2.891-.1-5.783l-.061-3.331C1207 526 1207 526 1208 525"/><path fill="#A683FC" d="m1561 595 5 1c-5.271 6.41-11.091 12.186-17 18l-1-2c2.015-4.165 4.865-7.018 8.188-10.187A130 130 0 0 0 1561 597z"/><path fill="#4F5052" d="m186 151 2 1-22 22-2-1c6.372-7.062 12.68-13.9 20-20z"/><path fill="#AFB6EB" d="m1513 769 1 2-3.375.375c-3.656.272-3.656.272-5.625 2.625-2.009.032-4.02.059-6.027-.027-3.19.044-4.73.785-6.973 3.027l-4-6 2.375.563c8.478 1.023 14.727-2.914 22.625-2.563"/><path fill="#535355" d="m653 280 2 1-19 19-2-1q3.057-3.35 6.125-6.687l1.727-1.897c3.506-3.805 7.097-7.196 11.148-10.416"/><path fill="#4A4A4B" d="m892 468 2 1-21 21-2-1c5.168-5.857 10.3-11.545 16.309-16.562 1.653-1.406 3.178-2.884 4.691-4.438M642 468l2 1-21 21-2-1c5.168-5.857 10.3-11.545 16.309-16.562 1.653-1.406 3.178-2.884 4.691-4.438"/><path fill="#41B2E9" d="m1096 592 2 3 1.578 2.34 1.672 2.597 1.703 2.59c1.047 2.473 1.047 2.473.219 4.79L1102 609a288 288 0 0 1-3.562-5.125l-2.004-2.883c-1.698-3.543-1.446-5.263-.434-8.992"/><path fill="#E295EE" d="m1679 446 3 1-1.363 1.145c-6.202 5.306-11.918 11.041-17.637 16.855 0-4.076 1.26-4.986 4-8 2-1.823 4.036-3.594 6.094-5.352 2.07-1.79 4.01-3.674 5.906-5.648"/><path fill="#99BFEB" d="m1102 384 3 1-17 17-1-3h2l1-3h2v-2a263 263 0 0 1 5-4l1-2h2v-2h2z"/><path fill="#E575F4" d="M1525 37c4.595-.18 7.825.082 12 2 2.209.621 4.36 1.06 6.625 1.438C1546 41 1546 41 1548 43c-8.33.354-15.478-1.479-23-5z"/><path fill="#4F4F53" d="m687 1009 2 1-14 14c0-3.884 1.17-4.676 3.75-7.5l2.11-2.344c1.941-1.956 3.89-3.574 6.14-5.156"/><path fill="#EA8DF5" d="M1559 48c14.325 2.992 14.325 2.992 20 8-4.084-.743-8.02-1.83-12-3v-2h-6v-2z"/><path fill="#59595C" d="m1016 467 2 1-13 13-2-1c8.262-9.595 8.262-9.595 13-13M766 467l2 1-13 13-2-1c8.262-9.595 8.262-9.595 13-13"/><path fill="#E66DF6" d="M1470 23c2.281.315 4.095 1.043 6.188 2 3.874 1.377 7.732 1.662 11.812 2l-1 2c-6.908-.368-12.638-1.24-19-4z"/><path fill="#A7B5DC" d="m1270 51 4 2-2.125.813c-2.936 1.163-2.936 1.163-5.875 2.75-2.744 1.314-5.01 1.997-8 2.437l-1 3-4-2 1.758-.77c8.195-3.228 8.195-3.228 15.242-8.23"/><path fill="#D9A3E8" d="m1442 21 3.813-.125 2.144-.07C1450 21 1450 21 1453 23c3.198.46 3.198.46 6.688.625l3.574.227L1466 24v1a901 901 0 0 1-7.812.125c-.738.017-1.476.034-2.237.05-3.863.036-5.66.019-8.951-2.175a75 75 0 0 0-5-1z"/><path fill="#EB70F9" d="M1384 24h3a259 259 0 0 1 3 5c1.918 2.1 3.941 4.033 6 6l-1 3-1.863-2.082-2.45-2.73-2.425-2.708c-1.714-1.88-3.44-3.706-5.262-5.48z"/><path fill="#58585A" d="m2531 1009 2 1-11 11-2-1c3.381-4.136 6.666-7.813 11-11M1785 1009l2 1-11 11-2-1c3.381-4.136 6.666-7.813 11-11M1525 1009l2 1-11 11-2-1c3.381-4.136 6.666-7.813 11-11"/><path fill="#4D4E52" d="m1445 586 2 1-11 11c0-3.524.551-4.015 2.813-6.562l1.582-1.817C1442 588 1442 588 1445 586"/><path fill="#A1C1E5" d="M1100 196c1 3 1 3-.11 5.629l-1.64 2.934-1.61 2.94C1095 210 1095 210 1092 212c1.57-5.967 4.75-10.83 8-16"/><path fill="#E6A0F2" d="m1514 32 1 1c2.028.193 4.057.383 6.09.523C1523 34 1523 34 1525 37l-20-4v-1c3.361-.84 5.704-1.177 9 0"/><path fill="#89B7DD" d="m1457 775 4 4c-4.778 2.914-7.551 3.199-13 2v-1l9-2z"/><path fill="#5E5E60" d="m2563 499-2.187 1.188c-3.04 1.958-5.334 4.192-7.813 6.812l-2-1q1.432-1.724 2.875-3.437l1.617-1.934c2.63-2.842 3.965-2.692 7.508-1.629"/><path fill="#B8BDEF" d="m1561 595 4 2-9 8-2-1 1.531-1.46 1.969-1.915 1.969-1.898c1.752-1.592 1.752-1.592 1.531-3.727"/><path fill="#E984F6" d="M1610 72c3.498.634 5.84 2.052 8.75 4.063l2.422 1.66L1623 79c-3 1-3 1-5.375-.125-2.864-2.045-5.21-4.322-7.625-6.875"/><path fill="#A8AFE4" d="m1488 771 10 1-1 2-3 1-2 2z"/><path fill="#25193C" d="M1720 452h8l-1 4c-2.375-.312-2.375-.312-5-1z"/><path fill="#545455" d="m1964 1003 2 1-8 8-2-1c2.416-3.192 4.68-5.747 8-8"/><path fill="#A5ABE7" d="m1661 693 3 1c-2.883 4.214-5.043 5.76-10 7v-2l2.375-.187L1659 698c1.375-2.476 1.375-2.476 2-5"/><path fill="#58A6D5" d="M1308 625q1.693 1.4 3.375 2.813l1.898 1.582C1315 631 1315 631 1317 634l-4-1v-2l-3-1v-2h-2z"/><path fill="#7E95E6" d="m1163 122 2 1c-2.657 3.739-4.581 5.65-9 7v-2c1.531-1.508 1.531-1.508 3.5-3.125l1.969-1.633z"/><path fill="#B0BCE9" d="m1638 520 1 3c-1.215 1.824-1.215 1.824-2.937 3.688l-1.715 1.886L1633 530l-4-2 2.25-1.187c2.948-1.943 4.681-3.978 6.75-6.813"/><path fill="#545556" d="m2325 499 2 1-8 8c0-3.936 1.429-5.126 4-8z"/><path fill="#EB8BF6" d="m1537 39 1.688.438c2.352.602 2.352.602 4.937 1C1546 41 1546 41 1548 43c-7.429.143-7.429.143-11-1z"/><path fill="#AFB5E8" d="m1615 729-10 5v-3c5.5-3.125 5.5-3.125 10-2"/><path fill="#E77EF5" d="M1750 211c2.743 3.2 4.63 6.005 6 10-3.456-1.152-4.198-1.911-6-5-.187-2.75-.187-2.75 0-5"/><path fill="#4D4D4F" d="m2844 499 2 1-6 6-2-1c3.75-4.875 3.75-4.875 6-6"/><path fill="#E4A3EF" d="M1474 24a206 206 0 0 1 5 2v1c-4.056-.468-7.466-.88-11-3 2.566-1.283 3.304-.847 6 0"/></svg>